<svg width="500" height="405" viewBox="0 0 500 405" fill="none" xmlns="http://www.w3.org/2000/svg">
<path fill-rule="evenodd" clip-rule="evenodd" d="M238.731 184.366C243.498 190.252 248.264 196.138 250 214.077C237.332 196.682 218.231 184.853 194.851 177.29L190.11 185.687C194.43 186.97 198.751 188.395 203.074 189.979C214.109 194.142 224.94 199.718 234.802 211.983C219.751 202.566 203.639 198.487 187.375 195.17C186.573 195.046 185.769 194.924 184.963 194.804L180.703 202.35C191.227 203.126 201.565 205.525 211.695 209.723C205.867 208.991 199.85 208.337 189.659 209.389C184.791 209.959 180.057 210.757 175.416 211.714L122.388 305.639H86.8284L133.529 222.92C123.894 225.128 114.939 225.776 108.08 221.622C124.279 221.212 130.072 217.53 136.572 213.399C137.441 212.846 138.324 212.285 139.245 211.723C135.367 213.037 132.142 213.525 129.05 213.846C128.276 213.894 127.502 213.944 126.728 213.994C115.091 214.746 103.454 215.499 88.5333 209.605C71.5956 202.732 67.9911 197.111 64.8159 191.53C70.0563 196.007 75.358 198.362 80.6985 199.383C97.6577 201.785 116.054 201.614 134.762 201.44H134.762H134.762L134.769 201.44C138.405 201.406 142.052 201.372 145.703 201.357L151.683 190.766C141.942 189.792 132.124 188.939 122.306 188.086C116.375 187.57 110.443 187.055 104.528 186.513C81.569 184.459 60.0986 179.103 41.926 166.432C28.7833 157.401 23.2966 146.726 19.5294 135.682C24.9359 143.82 32.9272 151.328 47.7081 157.183C75.2633 167.083 102.396 170.842 131.016 174.807C137.009 175.638 143.068 176.477 149.209 177.384C152.312 177.756 155.415 178.179 158.518 178.659L164.137 168.707C147.596 164.544 131.097 160.997 114.598 157.45L114.598 157.45L114.597 157.45C106.215 155.648 97.8334 153.846 89.4458 151.963C66.3219 146.676 43.7082 139.549 23.56 123.539C14.0793 115.897 8.40601 106.349 4.51197 95.9106C1.47638 89.1747 1.37338 81.4558 1.2884 73.7309C4.54301 89.3013 28.8989 108.486 31.8435 107.696C30.9932 106.663 30.1595 105.656 29.3417 104.668C21.3728 95.04 14.91 87.2318 9.15913 75.1784C3.7314 65.4141 1.07299 54.3246 0.00416255 42.4744C-0.152795 23.7136 4.15542 14.849 8.46363 5.98425C9.41577 4.02511 10.3679 2.06597 11.2718 0C8.92655 28.7595 14.0133 56.3379 38.326 80.8612C56.7806 103.128 101.76 119.793 149.134 137.345C158.103 140.668 167.158 144.023 176.136 147.454L249.974 16.6691L250 16.6222L323.864 147.454C332.84 144.024 341.894 140.669 350.861 137.347L350.866 137.345C398.239 119.793 443.219 103.128 461.673 80.8612C485.986 56.3379 491.073 28.7595 488.727 0C489.631 2.06504 490.582 4.02335 491.534 5.98161L491.535 5.98246L491.535 5.98424C495.844 14.8489 500.152 23.7136 499.995 42.4744C498.926 54.3246 496.268 65.4141 490.84 75.1784C485.089 87.2318 478.626 95.04 470.657 104.668C469.84 105.656 469.006 106.663 468.156 107.696C471.1 108.486 495.456 89.3013 498.711 73.7309C498.626 81.4558 498.523 89.1747 495.487 95.9106C491.593 106.349 485.92 115.897 476.439 123.539C456.291 139.549 433.677 146.676 410.554 151.963C402.166 153.846 393.784 155.648 385.401 157.45L385.401 157.45C368.902 160.997 352.404 164.544 335.863 168.707L341.482 178.659C344.585 178.179 347.688 177.756 350.791 177.384C356.932 176.477 362.991 175.638 368.984 174.807C397.604 170.842 424.736 167.083 452.292 157.183C467.072 151.328 475.064 143.82 480.47 135.682C476.703 146.726 471.216 157.401 458.074 166.432C439.901 179.103 418.431 184.459 395.472 186.513C389.557 187.055 383.625 187.57 377.694 188.086C367.876 188.939 358.058 189.792 348.317 190.766L354.297 201.357C357.948 201.372 361.596 201.406 365.232 201.44L365.238 201.44C383.946 201.614 402.343 201.785 419.302 199.383C424.642 198.362 429.944 196.007 435.185 191.53C432.009 197.111 428.405 202.732 411.467 209.605C396.546 215.499 384.909 214.746 373.272 213.994C372.498 213.944 371.725 213.894 370.95 213.846C367.858 213.525 364.633 213.037 360.755 211.723C361.676 212.285 362.559 212.846 363.429 213.399C369.928 217.53 375.722 221.212 391.92 221.622C385.061 225.776 376.106 225.128 366.471 222.92L413.172 305.639H376.672L323.522 211.498C319.221 210.637 314.838 209.915 310.341 209.389C300.15 208.337 294.133 208.991 288.305 209.723C298.146 205.645 308.183 203.264 318.397 202.42L314.171 194.934C313.655 195.012 313.14 195.091 312.625 195.17C296.362 198.487 280.25 202.566 265.199 211.983C275.061 199.718 285.891 194.142 296.927 189.979C300.981 188.494 305.034 187.147 309.086 185.928L304.355 177.549C281.337 185.122 262.524 196.879 250 214.077C251.736 196.138 256.502 190.252 261.269 184.366L261.27 184.365L261.27 184.365L261.27 184.364L261.271 184.364L261.271 184.364L261.271 184.364C262.17 183.254 263.068 182.144 263.947 180.953C272.409 172.533 281.709 165.48 294.173 159.513L249.53 80.4397L205.086 159.161C217.923 165.203 227.425 172.367 236.053 180.953C236.932 182.145 237.832 183.255 238.731 184.366Z" fill="url(#paint0_linear)"/>
<path d="M115.005 351.052C111.825 351.052 108.177 350.958 103.969 350.678C102.379 350.678 100.883 350.584 99.3861 350.584C114.818 323.649 128.753 321.217 135.393 319.908C128.285 325.333 120.055 337.958 115.005 351.052ZM91.4366 352.267C84.2352 364.613 75.631 382.382 64.6886 383.037C58.9836 383.411 54.3074 381.073 52.7175 376.303C51.8758 373.872 51.8758 364.519 61.7894 358.347C67.0267 355.073 76.6597 352.174 91.4366 352.267ZM145.12 316.074C143.53 313.174 132.774 317.57 132.774 317.57C121.177 319.908 109.113 316.728 95.4581 317.944C81.4295 319.066 69.1778 324.304 69.1778 336.462C69.1778 348.246 84.6093 345.534 89.192 342.26C92.7459 339.735 95.1776 336.555 95.4581 332.253C95.6452 329.261 93.4941 323.181 93.12 325.987C92.4653 331.225 91.8107 336.275 87.0409 340.483C81.4295 345.44 71.2353 344.879 71.3289 336.462C71.5159 325.8 83.0194 320.563 95.2711 319.534C109.393 318.225 116.314 321.124 127.724 319.908C116.127 322.901 103.969 331.692 92.5589 350.491C71.4224 350.584 64.5951 354.419 59.7318 357.411C49.9118 363.584 49.5377 373.591 50.3794 376.21C52.3434 382.569 58.329 385.469 64.5016 385.095C80.9619 384.159 89.4726 368.634 98.2638 352.735C98.2638 352.548 98.3574 352.455 98.4509 352.267C99.9473 352.267 101.444 352.361 103.034 352.361C107.149 352.548 110.983 352.642 114.444 352.642C114.35 352.735 114.35 352.829 114.35 352.922C109.019 367.325 106.4 382.569 114.724 386.123C118.652 387.807 123.048 387.994 127.35 384.346C128.846 383.131 130.623 379.67 129.782 379.577C128.94 379.483 127.256 382.85 124.918 384.253C121.364 386.31 117.062 386.03 115.192 382.85C112.292 378.08 116.127 364.706 119.026 356.85C119.494 355.541 120.055 354.044 120.616 352.548C131.933 352.267 137.825 350.21 137.544 346.563C137.357 347.124 136.141 350.303 121.271 350.865C125.76 339.455 132.774 325.613 139.695 319.534C141.753 318.879 146.429 318.505 145.12 316.074Z" fill="black"/>
<path d="M142.52 315.001C141.275 315.005 139.777 315.285 138.33 315.654C135.442 316.39 132.765 317.484 132.751 317.49C121.182 319.82 109.12 316.644 95.4507 317.861C88.4282 318.423 81.847 320.014 77.013 322.994C72.1789 325.974 69.0937 330.355 69.0937 336.463C69.0937 339.427 70.0683 341.495 71.6048 342.863C73.1413 344.231 75.2318 344.898 77.4592 345.092C81.9139 345.48 86.9218 343.986 89.2406 342.33C92.8069 339.796 95.2597 336.59 95.5421 332.26C95.6371 330.74 95.1433 328.471 94.5785 326.918C94.2962 326.141 94.0072 325.549 93.7253 325.3C93.6548 325.237 93.5816 325.194 93.5007 325.184C93.4197 325.175 93.3363 325.208 93.2754 325.27C93.1536 325.395 93.0844 325.619 93.0367 325.977C92.3821 331.214 91.7329 336.232 86.9853 340.421C84.1997 342.881 80.2687 343.973 77.0601 343.405C75.4558 343.122 74.0338 342.425 73.0182 341.283C72.0026 340.14 71.3896 338.55 71.4128 336.463C71.506 331.162 74.4061 327.217 78.8202 324.457C83.2343 321.697 89.162 320.131 95.2782 319.618H95.2785H95.2789C109.049 318.341 115.998 321.046 126.947 320.045C115.562 323.225 103.675 332.031 92.5119 350.407C71.4035 350.507 64.5501 354.348 59.6879 357.34H59.6876H59.6873C54.7603 360.437 52.1989 364.5 50.9778 368.116C49.7569 371.732 49.868 374.892 50.2993 376.234C52.2754 382.633 58.3048 385.554 64.5068 385.178C72.7622 384.709 79.0284 380.577 84.3215 374.582C89.6147 368.586 93.9418 360.725 98.3373 352.776L98.3478 352.757V352.735C98.3478 352.655 98.3658 352.602 98.3975 352.539C98.4228 352.488 98.4618 352.423 98.5001 352.352C99.9759 352.354 101.455 352.445 103.03 352.445C107.093 352.629 110.876 352.721 114.303 352.724C114.28 352.788 114.269 352.849 114.268 352.902C111.603 360.105 109.614 367.518 109.333 373.587C109.192 376.622 109.478 379.322 110.326 381.492C111.174 383.662 112.589 385.303 114.691 386.2C118.638 387.892 123.079 388.077 127.403 384.411C128.169 383.789 128.987 382.616 129.517 381.579C129.782 381.06 129.975 380.577 130.049 380.207C130.087 380.022 130.096 379.864 130.061 379.736C130.026 379.608 129.926 379.508 129.791 379.493C129.657 379.478 129.521 379.531 129.381 379.623C129.241 379.714 129.094 379.847 128.935 380.012C128.617 380.341 128.255 380.798 127.846 381.3C127.029 382.305 126.027 383.489 124.876 384.18C124.876 384.18 124.876 384.18 124.876 384.18C124.876 384.18 124.876 384.18 124.875 384.18C123.113 385.2 121.166 385.639 119.434 385.431C117.701 385.223 116.186 384.373 115.264 382.807H115.264C113.841 380.466 114.06 375.939 115.017 371.024C115.974 366.109 117.657 360.804 119.105 356.88C119.567 355.587 120.121 354.109 120.676 352.631C126.308 352.488 130.599 351.905 133.457 350.898C134.891 350.393 135.966 349.781 136.669 349.057C137.372 348.333 137.7 347.492 137.628 346.557L137.465 346.537C137.419 346.674 137.316 346.959 136.953 347.335C136.59 347.711 135.966 348.173 134.881 348.638C132.725 349.56 128.734 350.486 121.4 350.773C125.886 339.4 132.871 325.651 139.737 319.611C140.754 319.29 142.429 319.032 143.7 318.55C144.338 318.308 144.878 318.01 145.181 317.599C145.485 317.189 145.531 316.662 145.194 316.035H145.193C144.983 315.651 144.62 315.39 144.16 315.228C143.701 315.066 143.142 314.999 142.52 315.002L142.52 315.001ZM142.52 315.169C143.13 315.167 143.672 315.233 144.105 315.386C144.537 315.538 144.859 315.774 145.046 316.115C145.363 316.703 145.316 317.135 145.046 317.499C144.777 317.863 144.264 318.155 143.64 318.392C142.391 318.866 140.712 319.123 139.67 319.455L139.653 319.46L139.64 319.472C132.693 325.574 125.684 339.418 121.193 350.835L121.146 350.954L121.274 350.949C128.715 350.668 132.745 349.733 134.947 348.791C136.048 348.321 136.692 347.847 137.074 347.452C137.253 347.266 137.366 347.101 137.449 346.959C137.412 347.688 137.123 348.348 136.549 348.939C135.872 349.636 134.82 350.239 133.401 350.739C130.564 351.739 126.268 352.325 120.614 352.465L120.557 352.467L120.537 352.52C119.976 354.016 119.415 355.513 118.947 356.823C117.496 360.754 115.812 366.064 114.852 370.993C113.892 375.921 113.644 380.465 115.119 382.894C115.12 382.894 115.12 382.894 115.12 382.894C115.12 382.894 115.12 382.894 115.12 382.894C116.069 384.506 117.639 385.386 119.414 385.599C121.189 385.812 123.169 385.363 124.96 384.326H124.961H124.962C126.149 383.614 127.157 382.414 127.976 381.407C128.386 380.904 128.748 380.449 129.056 380.13C129.21 379.97 129.351 379.844 129.473 379.764C129.595 379.684 129.696 379.652 129.772 379.661C129.848 379.669 129.876 379.698 129.899 379.781C129.922 379.865 129.919 380.003 129.885 380.174C129.816 380.517 129.629 380.993 129.368 381.503C128.846 382.523 128.028 383.688 127.297 384.282H127.296H127.296C123.016 387.91 118.667 387.721 114.757 386.046H114.757C112.698 385.167 111.318 383.569 110.483 381.431C109.647 379.293 109.361 376.615 109.5 373.595C109.78 367.554 111.765 360.148 114.429 352.951L114.434 352.937V352.922C114.434 352.829 114.429 352.775 114.503 352.701L114.646 352.557H114.444C110.985 352.557 107.152 352.464 103.038 352.277H103.036H103.034C101.447 352.277 99.9509 352.183 98.451 352.183H98.3989L98.3757 352.23C98.3314 352.318 98.2857 352.387 98.2473 352.464C98.2145 352.529 98.1966 352.608 98.1898 352.695C93.7943 360.644 89.4706 368.495 84.1958 374.47C78.9208 380.446 72.7014 384.544 64.4967 385.01H64.4964C58.3532 385.383 52.4117 382.505 50.4597 376.185C50.0495 374.908 49.927 371.756 51.1375 368.171C52.348 364.586 54.8838 360.559 59.7764 357.484C64.637 354.493 71.4332 350.669 92.5596 350.575H92.6067L92.6309 350.535C104.033 331.75 116.173 322.977 127.745 319.991L127.715 319.826C116.323 321.04 109.4 318.141 95.2637 319.452H95.2644C89.1289 319.967 83.1787 321.535 78.7314 324.316C74.2842 327.097 71.3395 331.101 71.2454 336.462H71.2451C71.2215 338.583 71.848 340.22 72.8928 341.395C73.9377 342.57 75.3972 343.282 77.0312 343.572C80.2992 344.15 84.2711 343.043 87.0969 340.547C91.8886 336.319 92.5491 331.236 93.2038 325.999C93.2496 325.656 93.3294 325.457 93.3961 325.388C93.4295 325.354 93.4502 325.348 93.4812 325.352C93.5122 325.356 93.5591 325.377 93.6143 325.426C93.835 325.621 94.1421 326.209 94.4209 326.976C94.9784 328.509 95.4668 330.777 95.3747 332.249C95.096 336.523 92.6853 339.677 89.1438 342.193H89.1434C86.8794 343.811 81.8806 345.309 77.474 344.925C75.2707 344.734 73.2169 344.074 71.7168 342.738C70.2166 341.403 69.2621 339.391 69.2621 336.463C69.2621 330.413 72.303 326.096 77.1018 323.137C81.9007 320.179 88.4592 318.59 95.4651 318.029H95.4655H95.4658C109.103 316.815 121.169 319.997 132.791 317.654L132.799 317.652L132.806 317.649C132.806 317.649 135.492 316.552 138.372 315.817C139.812 315.45 141.301 315.174 142.52 315.17L142.52 315.169ZM135.377 319.827C132.058 320.481 126.896 321.42 120.64 325.567C114.384 329.714 107.034 337.067 99.3134 350.543L99.2414 350.669H99.3863C100.877 350.669 102.372 350.762 103.963 350.762C108.174 351.043 111.823 351.137 115.005 351.137H115.062L115.083 351.083C120.129 338.001 128.361 325.381 135.444 319.976L135.377 319.827ZM135.074 320.061C128.013 325.605 119.943 338.045 114.949 350.967C111.783 350.966 108.158 350.874 103.975 350.595H103.972H103.969C102.433 350.595 100.985 350.51 99.5329 350.504C107.217 337.128 114.523 329.824 120.733 325.708C126.777 321.7 131.748 320.715 135.074 320.062V320.061ZM91.437 352.184C76.649 352.091 67.0026 354.99 61.7449 358.276C56.7719 361.373 54.2802 365.272 53.1406 368.702C52.0014 372.132 52.2064 375.083 52.638 376.331C52.6381 376.331 52.6382 376.331 52.6384 376.331C52.6384 376.331 52.6383 376.331 52.6384 376.331C54.2416 381.139 58.9635 383.497 64.6938 383.121C70.2088 382.791 75.1088 378.161 79.5333 372.086C83.9577 366.011 87.9101 358.48 91.5093 352.31L91.5823 352.185L91.437 352.184ZM91.2901 352.355C87.7069 358.507 83.7826 365.967 79.3978 371.987C74.9842 378.047 70.1109 382.629 64.6837 382.954H64.6833C59.0041 383.326 54.3743 381.008 52.7974 376.277H52.797C52.387 375.093 52.1715 372.153 53.3 368.756C54.4284 365.359 56.8933 361.496 61.8339 358.42C67.033 355.17 76.6106 352.284 91.2901 352.356L91.2901 352.355Z" fill="black"/>
<path d="M126.573 360.498C125.731 362.181 125.638 362.555 126.012 362.742C126.667 363.116 127.228 362.087 128.069 360.404C128.631 359.282 129.192 358.44 129.379 358.721C129.566 359.001 129.285 360.03 128.631 362.555C127.041 367.886 126.012 371.72 126.76 373.404C127.695 375.555 130.127 378.454 135.271 373.591C137.889 371.066 141.256 366.67 141.63 365.828C141.724 366.764 142.659 367.699 143.688 367.886C146.587 368.634 150.421 363.584 152.011 360.591C152.479 359.656 152.292 359.469 152.011 359.282C151.731 359.188 151.17 359.469 150.983 359.936C149.486 363.023 145.932 367.325 143.968 366.67C142.753 366.39 142.472 364.613 143.501 362.929C144.717 360.778 145.558 359.562 146.119 358.159C146.493 357.318 147.335 354.605 146.306 353.951C142.94 351.987 140.976 361.62 140.882 363.584C139.479 368.073 130.501 377.613 130.501 374.059C130.501 372.282 132.278 367.886 134.055 363.023C135.084 360.123 135.458 356.85 133.4 355.26C130.127 352.548 127.882 357.785 126.573 360.498Z" fill="black"/>
<path d="M145.707 353.632C145.497 353.593 145.292 353.596 145.094 353.638C144.697 353.722 144.33 353.955 143.993 354.292C143.318 354.965 142.753 356.055 142.289 357.265C141.364 359.676 140.851 362.552 140.8 363.565C140.106 365.777 137.517 369.286 135.105 371.779C133.899 373.027 132.733 374.023 131.886 374.479C131.463 374.707 131.121 374.791 130.913 374.732C130.809 374.703 130.733 374.643 130.677 374.537C130.62 374.43 130.585 374.272 130.585 374.059C130.585 373.198 131.026 371.653 131.691 369.726C132.357 367.799 133.245 365.484 134.134 363.052H134.134C134.651 361.596 135.005 360.044 134.969 358.649C134.934 357.254 134.505 356.009 133.453 355.196C132.621 354.507 131.836 354.314 131.119 354.472C130.402 354.629 129.76 355.128 129.187 355.791C128.04 357.115 127.151 359.108 126.498 360.462C126.077 361.304 125.841 361.818 125.755 362.161C125.712 362.333 125.706 362.467 125.744 362.578C125.783 362.689 125.87 362.765 125.974 362.817C126.155 362.92 126.348 362.928 126.525 362.849C126.704 362.77 126.869 362.613 127.037 362.397C127.373 361.965 127.724 361.285 128.145 360.442C128.424 359.884 128.704 359.395 128.932 359.087C129.046 358.933 129.15 358.825 129.22 358.779C129.255 358.756 129.28 358.751 129.288 358.751C129.296 358.751 129.297 358.749 129.309 358.768C129.337 358.811 129.359 358.912 129.349 359.079C129.339 359.247 129.302 359.478 129.238 359.78C129.111 360.384 128.877 361.272 128.549 362.535C127.755 365.2 127.1 367.491 126.736 369.332C126.373 371.173 126.294 372.562 126.683 373.438C127.156 374.526 128.01 375.813 129.415 376.21C130.82 376.606 132.746 376.095 135.329 373.653H135.329H135.329C136.643 372.386 138.141 370.654 139.358 369.132C139.967 368.372 140.505 367.664 140.916 367.092C141.273 366.595 141.477 366.267 141.605 366.024C141.797 366.938 142.672 367.786 143.671 367.969C144.421 368.162 145.225 367.979 146.027 367.559C146.831 367.138 147.637 366.478 148.401 365.702C149.929 364.151 151.287 362.136 152.086 360.632L152.087 360.63H152.087C152.324 360.157 152.403 359.865 152.376 359.647C152.348 359.429 152.202 359.309 152.058 359.213L152.049 359.207L152.038 359.203C151.858 359.143 151.632 359.203 151.42 359.328C151.207 359.453 151.007 359.652 150.905 359.907L150.907 359.902C150.164 361.435 148.904 363.278 147.59 364.65C146.934 365.336 146.263 365.904 145.641 366.257C145.02 366.61 144.453 366.745 143.995 366.592L143.992 366.59H143.988C143.416 366.458 143.067 365.982 142.976 365.316C142.886 364.651 143.067 363.802 143.573 362.975L143.574 362.973L143.574 362.971C144.788 360.824 145.631 359.607 146.197 358.194C146.388 357.764 146.692 356.874 146.823 355.998C146.888 355.56 146.909 355.127 146.847 354.754C146.785 354.381 146.636 354.062 146.352 353.881L146.351 353.88H146.349C146.132 353.753 145.917 353.671 145.707 353.633L145.707 353.632ZM145.677 353.796C145.866 353.831 146.06 353.905 146.263 354.023C146.493 354.17 146.624 354.435 146.681 354.78C146.739 355.126 146.72 355.546 146.656 355.973C146.529 356.827 146.226 357.714 146.043 358.126L146.043 358.127L146.042 358.129C145.485 359.521 144.645 360.735 143.428 362.889L143.43 362.886C142.907 363.742 142.713 364.624 142.81 365.338C142.906 366.05 143.304 366.601 143.946 366.751C144.47 366.924 145.082 366.767 145.724 366.402C146.368 366.036 147.048 365.459 147.712 364.765C149.04 363.378 150.306 361.527 151.059 359.974L151.06 359.971L151.061 359.968C151.146 359.756 151.32 359.58 151.505 359.472C151.686 359.365 151.875 359.332 151.977 359.362C152.106 359.448 152.19 359.516 152.209 359.667C152.228 359.823 152.167 360.093 151.937 360.554C151.146 362.043 149.792 364.049 148.281 365.583C147.525 366.351 146.73 367 145.949 367.409C145.169 367.818 144.408 367.985 143.709 367.805H143.706H143.703C142.714 367.625 141.803 366.708 141.714 365.822L141.683 365.506L141.554 365.796C141.468 365.989 141.187 366.426 140.779 366.994C140.371 367.562 139.834 368.269 139.227 369.028C138.013 370.545 136.517 372.274 135.213 373.532C132.652 375.953 130.79 376.424 129.46 376.049C128.13 375.673 127.3 374.436 126.837 373.372H126.837C126.478 372.565 126.54 371.196 126.901 369.366C127.263 367.536 127.917 365.246 128.712 362.582L128.712 362.58L128.712 362.578C129.039 361.316 129.273 360.427 129.403 359.816C129.467 359.51 129.506 359.273 129.517 359.09C129.528 358.907 129.514 358.774 129.449 358.676C129.415 358.625 129.357 358.587 129.296 358.584C129.236 358.581 129.181 358.605 129.129 358.639C129.024 358.707 128.917 358.826 128.797 358.988C128.558 359.311 128.277 359.805 127.995 360.369C127.574 361.21 127.223 361.886 126.904 362.295C126.745 362.5 126.594 362.635 126.457 362.696C126.32 362.757 126.199 362.754 126.054 362.671L126.052 362.67L126.05 362.668C125.968 362.627 125.925 362.587 125.903 362.523C125.88 362.458 125.879 362.358 125.918 362.202C125.996 361.891 126.228 361.377 126.649 360.536H126.649C127.305 359.178 128.193 357.196 129.314 355.902C129.874 355.255 130.49 354.783 131.155 354.637C131.82 354.491 132.543 354.66 133.347 355.327L133.348 355.328L133.349 355.33C134.354 356.107 134.767 357.292 134.801 358.656C134.836 360.02 134.488 361.555 133.976 362.998C133.088 365.429 132.2 367.743 131.533 369.674C130.866 371.605 130.417 373.146 130.417 374.062C130.417 374.293 130.453 374.477 130.528 374.619C130.604 374.76 130.723 374.856 130.867 374.897C131.155 374.979 131.526 374.867 131.966 374.63C132.846 374.156 134.013 373.153 135.226 371.899C137.653 369.391 140.251 365.889 140.963 363.612L140.966 363.602L140.967 363.591C141.012 362.631 141.526 359.725 142.446 357.328C142.905 356.129 143.468 355.056 144.112 354.414C144.433 354.093 144.773 353.881 145.129 353.806C145.306 353.768 145.489 353.764 145.678 353.799L145.677 353.796Z" fill="black"/>
<path d="M152.368 357.318C150.778 360.311 146.85 367.699 147.599 370.879C148.627 375.275 152.368 376.678 155.922 373.404C158.822 370.785 162.189 364.426 163.966 361.152C164.62 359.937 164.714 359.469 164.246 359.282C163.498 359.095 163.498 359.563 162.469 361.339C160.879 364.145 157.98 369.102 156.016 371.347C153.491 374.246 150.778 374.339 152.181 370.131C152.743 368.634 154.52 364.426 157.325 359.469C158.354 357.598 160.412 354.045 157.886 353.67C154.426 353.296 153.21 355.541 152.368 357.318ZM160.692 348.901C160.786 348.807 160.973 348.527 161.16 348.34C161.908 347.217 162.002 345.534 161.253 344.599C161.16 344.505 160.973 344.318 160.786 344.224C159.85 343.57 158.261 343.85 157.232 344.879C157.138 344.973 156.951 345.253 156.764 345.44C156.016 346.563 155.922 348.34 156.671 349.181C156.764 349.275 156.951 349.462 157.138 349.555C158.073 350.21 159.663 349.929 160.692 348.901Z" fill="black"/>
<path d="M159.995 343.822C159.075 343.665 157.962 344.029 157.172 344.82C157.115 344.876 157.047 344.968 156.966 345.073C156.885 345.177 156.793 345.292 156.704 345.381L156.698 345.387L156.694 345.394C156.309 345.97 156.096 346.708 156.072 347.413C156.048 348.118 156.213 348.793 156.607 349.237L156.609 349.239L156.611 349.241C156.704 349.334 156.891 349.524 157.097 349.628C158.079 350.309 159.699 350.012 160.751 348.96C160.807 348.904 160.875 348.811 160.957 348.707C161.038 348.602 161.13 348.488 161.218 348.399L161.224 348.393L161.229 348.386C161.997 347.234 162.099 345.523 161.318 344.546L161.315 344.542L161.312 344.539C161.219 344.446 161.031 344.256 160.826 344.152C160.582 343.983 160.299 343.873 159.995 343.822L159.995 343.822ZM159.964 343.99C160.251 344.037 160.515 344.138 160.737 344.293L160.742 344.297L160.747 344.3C160.913 344.383 161.096 344.561 161.19 344.656C161.901 345.55 161.817 347.201 161.09 348.292C160.995 348.388 160.903 348.501 160.824 348.604C160.742 348.71 160.669 348.804 160.632 348.841C159.628 349.845 158.075 350.109 157.186 349.487L157.181 349.483L157.175 349.48C157.009 349.397 156.825 349.217 156.731 349.124C156.379 348.726 156.217 348.092 156.24 347.419C156.262 346.745 156.469 346.033 156.833 345.488C156.927 345.392 157.019 345.278 157.099 345.176C157.181 345.07 157.254 344.975 157.291 344.938C158.043 344.186 159.105 343.849 159.964 343.99ZM156.683 353.564C155.568 353.653 154.733 354.062 154.089 354.624C153.232 355.375 152.713 356.392 152.292 357.282C151.497 358.779 150.117 361.374 149.029 363.996C147.939 366.62 147.131 369.262 147.516 370.898C148.035 373.116 149.245 374.595 150.787 375.097C152.329 375.599 154.186 375.116 155.978 373.466H155.979C158.904 370.824 162.262 364.465 164.038 361.193H164.039C164.368 360.583 164.559 360.16 164.609 359.846C164.634 359.688 164.623 359.554 164.565 359.444C164.508 359.334 164.406 359.256 164.277 359.205L164.271 359.203L164.266 359.201C164.071 359.152 163.911 359.143 163.768 359.197C163.624 359.25 163.509 359.362 163.393 359.526C163.162 359.855 162.909 360.412 162.396 361.298H162.395C160.806 364.102 157.903 369.062 155.952 371.291C155.326 372.01 154.688 372.554 154.111 372.899C153.533 373.244 153.016 373.385 152.639 373.321C152.262 373.256 152.008 373.003 151.916 372.489C151.823 371.974 151.912 371.202 152.261 370.157C152.261 370.157 152.261 370.157 152.261 370.157C152.82 368.665 154.596 364.461 157.398 359.51H157.398C157.912 358.576 158.687 357.218 159.019 356.032C159.185 355.439 159.243 354.887 159.087 354.444C158.931 354.002 158.55 353.685 157.898 353.588H157.896H157.895C157.457 353.541 157.055 353.535 156.683 353.565L156.683 353.564ZM156.696 353.73C157.056 353.702 157.448 353.708 157.874 353.754C158.484 353.844 158.792 354.112 158.929 354.499C159.065 354.887 159.018 355.41 158.857 355.986C158.534 357.138 157.766 358.492 157.251 359.428C154.443 364.389 152.666 368.599 152.102 370.101L152.101 370.103L152.101 370.105C151.748 371.164 151.65 371.958 151.75 372.519C151.851 373.08 152.17 373.412 152.611 373.487C153.052 373.563 153.599 373.401 154.197 373.044C154.794 372.687 155.442 372.132 156.078 371.402C158.056 369.142 160.95 364.189 162.541 361.382H162.541C163.057 360.491 163.318 359.926 163.531 359.623C163.637 359.472 163.727 359.391 163.826 359.354C163.924 359.318 164.044 359.322 164.219 359.365C164.319 359.406 164.381 359.456 164.416 359.522C164.452 359.59 164.465 359.684 164.443 359.819C164.4 360.089 164.217 360.508 163.891 361.113C162.113 364.388 158.738 370.748 155.865 373.343H155.865C154.103 374.965 152.313 375.418 150.839 374.938C149.365 374.458 148.19 373.038 147.68 370.86C147.317 369.316 148.099 366.674 149.184 364.061C150.269 361.447 151.647 358.854 152.442 357.358L152.443 357.356L152.444 357.354C152.864 356.468 153.374 355.474 154.2 354.751C154.82 354.209 155.615 353.815 156.696 353.73L156.696 353.73Z" fill="black"/>
<path d="M165.916 354.044C165.729 354.699 165.262 356.102 163.672 359.282C163.391 359.749 163.017 360.404 163.485 360.685C163.952 360.872 164.233 360.778 164.607 360.03C165.729 357.785 166.29 356.289 167.039 354.699C170.686 356.476 169.751 359.375 167.6 363.397C166.29 365.828 165.074 367.792 164.794 369.943C164.513 372.843 166.103 374.994 169.003 375.836C173.211 377.051 179.758 364.332 181.722 360.872C182.19 359.936 182.377 359.375 181.816 359.095C181.348 358.908 180.88 359.749 180.319 360.872C178.916 363.584 172.089 374.62 170.031 374.246C168.348 373.965 170.686 369.195 173.211 363.958C175.362 359.562 173.679 356.944 170.405 355.354C168.441 354.418 168.535 352.922 169.47 351.145C170.125 349.929 170.592 347.778 169.096 347.123C165.542 345.346 163.578 352.267 165.916 354.044Z" fill="black"/>
<path d="M167.839 346.756C167.434 346.779 167.059 346.915 166.725 347.135C166.057 347.576 165.544 348.345 165.218 349.222C164.892 350.099 164.753 351.086 164.843 351.972C164.931 352.833 165.243 353.597 165.82 354.065C165.629 354.726 165.164 356.11 163.597 359.244L163.6 359.238C163.459 359.473 163.292 359.757 163.217 360.031C163.179 360.168 163.164 360.305 163.196 360.433C163.227 360.561 163.308 360.676 163.441 360.756L163.447 360.76L163.453 360.762C163.697 360.86 163.918 360.89 164.12 360.782C164.323 360.674 164.492 360.448 164.682 360.067C165.786 357.859 166.349 356.376 167.076 354.82C168.815 355.693 169.455 356.804 169.41 358.203C169.364 359.625 168.6 361.349 167.526 363.357H167.526C166.218 365.786 164.995 367.757 164.711 369.933L164.711 369.934V369.936C164.427 372.869 166.051 375.067 168.979 375.917C170.075 376.233 171.299 375.644 172.545 374.561C173.79 373.477 175.067 371.889 176.273 370.156C178.686 366.689 180.815 362.64 181.795 360.914L181.796 360.912L181.797 360.91C182.032 360.44 182.201 360.063 182.238 359.748C182.257 359.591 182.242 359.447 182.179 359.322C182.115 359.197 182.005 359.096 181.853 359.02L181.85 359.018L181.847 359.017C181.705 358.96 181.555 358.984 181.421 359.063C181.287 359.143 181.162 359.273 181.035 359.442C180.783 359.779 180.525 360.272 180.244 360.834L180.245 360.833C179.547 362.181 177.489 365.62 175.352 368.668C174.284 370.191 173.195 371.619 172.248 372.638C171.775 373.148 171.337 373.555 170.958 373.821C170.58 374.086 170.264 374.202 170.047 374.163H170.046H170.045C169.855 374.131 169.736 374.044 169.655 373.897C169.574 373.75 169.536 373.534 169.547 373.259C169.568 372.709 169.778 371.927 170.122 370.989C170.809 369.114 172.024 366.613 173.287 363.995H173.287C174.369 361.783 174.492 360.002 173.921 358.573C173.349 357.144 172.09 356.078 170.442 355.278H170.442H170.442C169.476 354.818 169.035 354.237 168.934 353.553C168.833 352.869 169.081 352.066 169.544 351.185H169.545C169.878 350.567 170.162 349.717 170.174 348.926C170.186 348.135 169.912 347.391 169.131 347.048C168.677 346.822 168.243 346.733 167.839 346.757L167.839 346.756ZM167.848 346.92C168.222 346.898 168.626 346.982 169.059 347.198L169.06 347.2L169.062 347.202C169.777 347.514 170.017 348.172 170.006 348.924C169.995 349.676 169.718 350.51 169.396 351.107H169.396C168.924 352.003 168.658 352.836 168.768 353.578C168.877 354.32 169.371 354.955 170.369 355.43C171.995 356.22 173.214 357.259 173.765 358.635C174.315 360.012 174.205 361.737 173.136 363.922H173.136C171.873 366.54 170.657 369.042 169.964 370.931C169.618 371.876 169.402 372.667 169.379 373.253C169.368 373.546 169.404 373.791 169.508 373.978C169.611 374.166 169.786 374.289 170.017 374.328C170.314 374.382 170.661 374.235 171.055 373.958C171.449 373.681 171.893 373.267 172.371 372.752C173.327 371.723 174.419 370.292 175.49 368.764C177.631 365.709 179.688 362.274 180.394 360.91H180.394H180.395C180.675 360.35 180.932 359.861 181.17 359.543C181.289 359.385 181.404 359.27 181.506 359.209C181.608 359.149 181.691 359.138 181.782 359.174C181.907 359.238 181.984 359.311 182.029 359.398C182.073 359.487 182.087 359.594 182.071 359.729C182.039 359.999 181.88 360.37 181.647 360.835C180.662 362.57 178.538 366.608 176.135 370.06C174.933 371.787 173.661 373.367 172.434 374.434C171.207 375.502 170.035 376.047 169.026 375.756C166.156 374.923 164.601 372.818 164.878 369.954C165.155 367.828 166.364 365.871 167.674 363.437C168.751 361.424 169.53 359.687 169.578 358.21C169.625 356.732 168.918 355.522 167.075 354.624L166.999 354.587L166.963 354.664C166.213 356.258 165.653 357.752 164.532 359.993C164.348 360.361 164.19 360.556 164.041 360.635C163.895 360.713 163.743 360.696 163.525 360.61C163.428 360.55 163.38 360.481 163.359 360.394C163.337 360.305 163.346 360.196 163.379 360.076C163.444 359.836 163.604 359.559 163.744 359.326L163.745 359.323L163.747 359.32C165.338 356.137 165.809 354.728 165.997 354.068L166.013 354.013L165.967 353.978C165.408 353.553 165.098 352.812 165.011 351.956C164.923 351.1 165.059 350.134 165.376 349.281C165.693 348.428 166.191 347.689 166.818 347.276C167.131 347.07 167.474 346.942 167.848 346.921L167.848 346.92Z" fill="black"/>
<path d="M192.99 354.886C194.3 355.634 194.487 357.879 194.487 358.627C193.645 360.217 192.897 361.713 192.429 363.116C191.588 364.519 190.559 366.202 189.343 367.886C186.257 372.188 183.545 374.245 182.609 372.094C181.3 369.382 183.264 363.397 185.135 360.497C188.034 356.008 190.933 353.857 192.99 354.886ZM195.609 356.569V356.663C195.422 354.605 193.645 352.828 191.681 352.548C184.76 351.426 179.523 357.505 177.933 364.145C176.998 367.979 177.933 375.368 182.703 375.181C186.163 375.087 189.156 371.253 191.307 367.605C191.12 368.915 191.214 370.13 191.494 371.346C192.429 375.648 196.731 376.303 200.285 372.936C203.278 370.13 205.71 365.454 208.048 361.152C208.609 360.03 208.889 359.562 208.328 359.375C207.767 359.188 207.767 359.095 207.112 360.31C206.271 361.807 203.185 367.512 200.659 370.411C198.228 373.217 195.329 374.9 196.077 369.569C196.357 368.073 197.386 364.425 200.659 359.375C201.782 357.598 204.12 353.857 201.782 353.296C197.386 352.361 196.638 354.886 195.609 356.569Z" fill="black"/>
<path d="M190.408 352.337C187.452 352.228 184.841 353.429 182.752 355.374C180.364 357.598 178.651 360.791 177.852 364.125C177.38 366.061 177.38 368.875 178.099 371.196C178.459 372.357 178.998 373.395 179.756 374.135C180.514 374.874 181.493 375.313 182.707 375.265C184.467 375.217 186.098 374.22 187.556 372.786C188.937 371.427 190.151 369.67 191.193 367.935C191.066 369.126 191.156 370.249 191.413 371.365C191.887 373.541 193.225 374.814 194.895 375.1C196.564 375.386 198.553 374.694 200.344 372.998H200.344C203.354 370.175 205.785 365.494 208.123 361.193L208.123 361.191L208.124 361.189C208.404 360.629 208.616 360.234 208.692 359.933C208.729 359.782 208.733 359.649 208.676 359.536C208.62 359.423 208.508 359.345 208.356 359.295C208.218 359.249 208.112 359.207 208.01 359.188C207.907 359.17 207.802 359.182 207.709 359.247C207.523 359.376 207.367 359.661 207.04 360.27C206.196 361.77 203.109 367.472 200.597 370.355H200.597C199.992 371.054 199.358 371.682 198.762 372.146C198.166 372.61 197.606 372.908 197.167 372.957C196.948 372.982 196.761 372.947 196.603 372.847C196.445 372.746 196.313 372.576 196.215 372.314C196.02 371.791 195.975 370.907 196.161 369.582C196.44 368.097 197.465 364.46 200.731 359.42H200.731C201.293 358.531 202.161 357.15 202.599 355.908C202.818 355.287 202.931 354.7 202.834 354.216C202.737 353.733 202.411 353.36 201.803 353.214H201.801H201.8C199.586 352.743 198.265 353.145 197.38 353.887C196.551 354.581 196.109 355.548 195.637 356.354C195.309 354.387 193.603 352.739 191.695 352.465C191.26 352.395 190.83 352.352 190.408 352.337L190.408 352.337ZM190.401 352.504C190.817 352.52 191.239 352.561 191.669 352.631H191.67H191.67C193.592 352.905 195.344 354.656 195.527 356.67L195.694 356.663V356.592C196.208 355.746 196.649 354.718 197.488 354.015C198.333 353.307 199.583 352.914 201.765 353.378C201.765 353.378 201.765 353.378 201.765 353.378C202.325 353.513 202.583 353.818 202.669 354.249C202.756 354.681 202.654 355.245 202.44 355.852C202.013 357.065 201.151 358.442 200.59 359.33C197.311 364.389 196.278 368.045 195.995 369.553L195.995 369.556L195.995 369.558C195.807 370.897 195.844 371.801 196.057 372.374C196.164 372.66 196.318 372.865 196.513 372.989C196.707 373.113 196.938 373.153 197.186 373.125C197.682 373.069 198.257 372.753 198.865 372.279C199.473 371.805 200.113 371.171 200.724 370.466C203.263 367.551 206.347 361.845 207.187 360.352H207.187H207.188C207.515 359.744 207.687 359.469 207.805 359.387C207.863 359.346 207.904 359.342 207.98 359.355C208.056 359.369 208.161 359.409 208.303 359.456C208.431 359.499 208.495 359.55 208.526 359.613C208.557 359.675 208.561 359.764 208.529 359.894C208.464 360.154 208.255 360.554 207.974 361.116C205.635 365.418 203.204 370.087 200.229 372.876H200.229C198.466 374.546 196.527 375.21 194.923 374.935C193.32 374.66 192.039 373.455 191.577 371.329C191.298 370.122 191.206 368.917 191.391 367.619L191.236 367.565C190.162 369.385 188.879 371.25 187.438 372.668C185.997 374.086 184.401 375.053 182.702 375.099H182.701H182.701C181.53 375.145 180.603 374.729 179.873 374.016C179.143 373.304 178.614 372.29 178.26 371.148C177.552 368.863 177.553 366.066 178.016 364.167C178.807 360.861 180.508 357.695 182.866 355.499C184.93 353.578 187.493 352.398 190.401 352.506L190.401 352.504ZM192.193 354.565C191.322 354.47 190.348 354.819 189.33 355.555C187.972 356.535 186.518 358.202 185.065 360.452C184.122 361.913 183.162 364.139 182.599 366.345C182.036 368.552 181.862 370.738 182.535 372.131C182.777 372.685 183.151 372.988 183.615 373.033C184.079 373.079 184.618 372.878 185.217 372.48C186.415 371.685 187.866 370.091 189.412 367.935C190.63 366.249 191.66 364.563 192.502 363.16L192.507 363.152L192.51 363.143C192.975 361.749 193.721 360.256 194.562 358.667L194.572 358.648V358.627C194.572 358.246 194.525 357.493 194.312 356.734C194.098 355.975 193.718 355.205 193.033 354.813L193.031 354.812L193.029 354.81C192.763 354.677 192.484 354.596 192.193 354.564L192.193 354.565ZM192.171 354.73C192.443 354.76 192.704 354.837 192.952 354.961C193.575 355.319 193.943 356.043 194.15 356.779C194.355 357.508 194.402 358.238 194.403 358.609C193.568 360.188 192.824 361.676 192.355 363.078C191.515 364.479 190.488 366.158 189.276 367.837H189.276C187.736 369.984 186.287 371.568 185.124 372.34C184.542 372.726 184.035 372.905 183.631 372.865C183.228 372.826 182.913 372.581 182.687 372.061L182.687 372.059L182.686 372.057C182.049 370.738 182.203 368.575 182.762 366.386C183.321 364.198 184.278 361.981 185.206 360.542C186.652 358.303 188.098 356.65 189.428 355.69C190.426 354.97 191.351 354.64 192.171 354.73L192.171 354.73Z" fill="black"/>
<path d="M217.138 333.095C219.383 333.189 220.505 330.196 221.16 328.606C221.815 326.922 223.685 323.556 221.347 323.462C219.102 323.275 218.261 325.987 217.232 328.419C216.577 329.915 214.8 332.908 217.138 333.095Z" fill="black"/>
<path d="M221.354 323.378C220.197 323.282 219.391 323.942 218.763 324.913C218.136 325.884 217.668 327.173 217.155 328.386H217.156C216.831 329.127 216.22 330.252 215.982 331.228C215.863 331.717 215.834 332.173 215.999 332.532C216.164 332.89 216.529 333.131 217.132 333.179H217.134H217.136C218.296 333.228 219.164 332.477 219.815 331.53C220.466 330.583 220.912 329.432 221.238 328.638H221.239H221.239C221.563 327.804 222.197 326.539 222.458 325.46C222.588 324.92 222.63 324.423 222.475 324.039C222.32 323.656 221.957 323.405 221.354 323.38L221.354 323.378ZM221.34 323.546H221.342H221.344C221.908 323.568 222.187 323.774 222.319 324.1C222.45 324.426 222.421 324.894 222.295 325.418C222.041 326.466 221.412 327.726 221.082 328.575C220.754 329.372 220.312 330.511 219.677 331.434C219.042 332.358 218.228 333.056 217.144 333.011C216.579 332.965 216.29 332.762 216.151 332.461C216.013 332.159 216.03 331.738 216.145 331.268C216.375 330.327 216.979 329.207 217.309 328.452H217.31H217.31C217.826 327.234 218.293 325.951 218.905 325.005C219.516 324.059 220.253 323.456 221.34 323.547L221.34 323.546Z" fill="black"/>
<path d="M236.256 348.34H235.695C235.32 348.433 232.421 349.555 231.018 350.958C227.652 354.138 226.529 357.785 224.752 361.059C224.378 361.714 223.817 362.836 224.098 363.116C224.752 363.491 225.126 362.742 225.5 361.994C226.529 360.217 228.68 356.102 228.493 356.85C227.932 358.814 227.745 362.368 229.99 365.455C231.954 367.98 231.673 371.721 229.241 372.936C227.371 373.965 224.098 373.872 223.817 371.814C223.537 370.131 225.126 368.915 224.378 368.447C223.724 368.073 221.76 369.944 221.76 372.188C221.666 374.807 223.349 376.397 226.249 377.052C231.205 378.174 234.572 374.9 237.378 371.908C239.623 369.476 243.457 363.491 245.047 360.217C245.234 359.843 245.047 359.469 244.766 359.282C244.299 359.188 244.112 359.375 244.018 359.656C242.896 361.901 240.277 366.577 237.565 369.757C237.284 370.037 237.004 370.411 236.817 370.598C236.817 370.411 236.723 369.85 236.723 369.663C236.536 364.519 231.205 361.714 232.608 356.476C233.543 352.455 235.975 350.397 236.256 350.304C236.91 349.836 237.284 349.275 237.191 348.901C237.097 348.433 236.723 348.246 236.256 348.34Z" fill="black"/>
<path d="M236.596 348.239C236.484 348.226 236.364 348.232 236.239 348.257L236.256 348.255H235.684L235.674 348.258C235.567 348.285 235.32 348.372 234.972 348.513C234.624 348.654 234.181 348.848 233.705 349.083C232.755 349.552 231.675 350.184 230.961 350.897C227.577 354.092 226.45 357.755 224.679 361.019L224.68 361.017C224.491 361.346 224.256 361.793 224.101 362.198C224.024 362.4 223.966 362.592 223.946 362.758C223.925 362.924 223.939 363.075 224.038 363.175L224.046 363.183L224.056 363.189C224.233 363.29 224.404 363.32 224.558 363.286C224.713 363.252 224.847 363.158 224.965 363.033C225.201 362.785 225.387 362.408 225.573 362.036L225.576 362.031C226.091 361.14 226.884 359.671 227.526 358.516C227.847 357.937 228.131 357.438 228.321 357.132C228.335 357.109 228.338 357.109 228.351 357.088C227.839 359.112 227.748 362.515 229.922 365.504L229.922 365.505L229.923 365.507C230.892 366.752 231.307 368.299 231.18 369.68C231.054 371.06 230.39 372.269 229.204 372.862H229.203L229.201 372.864C228.285 373.368 227.011 373.6 225.945 373.451C225.411 373.376 224.931 373.207 224.57 372.936C224.21 372.666 223.967 372.297 223.9 371.804V371.802L223.9 371.8C223.764 370.987 224.081 370.283 224.349 369.711C224.483 369.425 224.606 369.174 224.649 368.95C224.671 368.837 224.672 368.729 224.636 368.629C224.601 368.529 224.529 368.443 224.423 368.376L224.421 368.374L224.42 368.373C224.214 368.255 223.94 368.319 223.651 368.484C223.362 368.649 223.05 368.924 222.758 369.281C222.175 369.995 221.676 371.039 221.675 372.186C221.675 372.186 221.675 372.186 221.675 372.187C221.629 373.514 222.035 374.592 222.821 375.414C223.608 376.236 224.77 376.803 226.23 377.133C228.73 377.699 230.837 377.155 232.662 376.095C234.488 375.035 236.035 373.462 237.439 371.965H237.44H237.44C239.699 369.518 243.527 363.54 245.122 360.255H245.123C245.226 360.048 245.227 359.834 245.161 359.652C245.096 359.469 244.968 359.316 244.813 359.212L244.799 359.203L244.783 359.2C244.537 359.151 244.348 359.174 244.209 359.257C244.069 359.341 243.989 359.479 243.939 359.63L243.943 359.619C242.824 361.859 240.204 366.534 237.501 369.703C237.263 369.942 237.055 370.206 236.881 370.401C236.872 370.308 236.867 370.231 236.854 370.121C236.83 369.934 236.808 369.744 236.808 369.664V369.662L236.807 369.661C236.713 367.06 235.321 365.058 234.142 363.062C232.964 361.067 231.996 359.088 232.689 356.498L232.69 356.497L232.69 356.495C233.155 354.497 233.991 352.987 234.745 351.967C235.122 351.456 235.479 351.068 235.757 350.802C235.896 350.67 236.016 350.568 236.108 350.497C236.2 350.426 236.274 350.386 236.282 350.383L236.295 350.379L236.305 350.372C236.639 350.133 236.903 349.87 237.074 349.613C237.245 349.357 237.328 349.103 237.273 348.881C237.222 348.63 237.09 348.442 236.905 348.337C236.813 348.284 236.708 348.251 236.596 348.238L236.596 348.239ZM236.576 348.405C236.668 348.416 236.751 348.442 236.822 348.483C236.964 348.564 237.066 348.702 237.109 348.917L237.109 348.919L237.11 348.921C237.148 349.073 237.09 349.286 236.934 349.52C236.778 349.755 236.528 350.006 236.207 350.235L236.229 350.224C236.168 350.245 236.104 350.289 236.006 350.364C235.908 350.44 235.784 350.545 235.641 350.681C235.355 350.954 234.993 351.349 234.61 351.867C233.845 352.903 232.998 354.433 232.527 356.454C232.527 356.454 232.527 356.456 232.527 356.457C232.527 356.457 232.527 356.457 232.527 356.457C231.819 359.103 232.815 361.145 233.997 363.147C235.18 365.15 236.547 367.122 236.639 369.666V369.663C236.639 369.77 236.664 369.954 236.687 370.141C236.71 370.328 236.733 370.518 236.733 370.598V370.801L236.877 370.657C237.073 370.46 237.351 370.09 237.625 369.816L237.627 369.813L237.629 369.81C240.35 366.62 242.969 361.943 244.094 359.693L244.096 359.688L244.098 359.682C244.141 359.552 244.201 359.457 244.295 359.4C244.386 359.346 244.522 359.324 244.729 359.362C244.85 359.446 244.953 359.567 245.003 359.707C245.055 359.852 245.056 360.012 244.972 360.179H244.972H244.971C243.387 363.441 239.547 369.433 237.316 371.849C235.915 373.344 234.376 374.904 232.578 375.948C230.779 376.993 228.724 377.524 226.267 376.968C224.828 376.643 223.699 376.087 222.943 375.297C222.186 374.506 221.798 373.48 221.844 372.19V372.188V372.186C221.844 371.088 222.326 370.075 222.889 369.387C223.17 369.043 223.471 368.78 223.734 368.629C223.997 368.479 224.213 368.449 224.335 368.518C224.414 368.568 224.456 368.621 224.478 368.683C224.5 368.746 224.502 368.822 224.484 368.916C224.448 369.104 224.332 369.35 224.197 369.637C223.928 370.21 223.59 370.955 223.734 371.824C223.807 372.36 224.079 372.774 224.469 373.067C224.86 373.361 225.368 373.537 225.922 373.614C227.028 373.769 228.325 373.533 229.279 373.009H229.28C230.525 372.387 231.217 371.117 231.348 369.692C231.478 368.268 231.052 366.683 230.058 365.403L230.056 365.401C227.832 362.342 228.019 358.814 228.574 356.871L228.575 356.87L228.575 356.868C228.581 356.842 228.586 356.821 228.588 356.8C228.59 356.779 228.596 356.76 228.576 356.722C228.565 356.704 228.54 356.681 228.513 356.676C228.486 356.67 228.466 356.677 228.452 356.683C228.426 356.695 228.415 356.708 228.4 356.723C228.344 356.781 228.274 356.886 228.178 357.042C227.985 357.353 227.701 357.853 227.379 358.432C226.736 359.59 225.941 361.063 225.428 361.949L225.427 361.952L225.425 361.954C225.238 362.328 225.051 362.697 224.843 362.916C224.74 363.025 224.634 363.095 224.523 363.12C224.416 363.143 224.297 363.121 224.155 363.045C224.118 363.002 224.095 362.914 224.112 362.776C224.13 362.633 224.183 362.451 224.258 362.256C224.407 361.865 224.639 361.423 224.825 361.098L224.826 361.097H224.826C226.608 357.816 227.726 354.183 231.076 351.019H231.077H231.078C231.767 350.33 232.837 349.7 233.78 349.234C234.251 349.002 234.691 348.81 235.035 348.67C235.376 348.532 235.625 348.446 235.708 348.425H236.264L236.272 348.423C236.382 348.401 236.484 348.396 236.576 348.407L236.576 348.405Z" fill="black"/>
<path d="M323.791 351.051C320.611 351.051 316.964 350.958 312.755 350.677C311.165 350.677 309.669 350.584 308.172 350.584C323.604 323.649 337.539 321.217 344.179 319.908C337.071 325.332 328.841 337.958 323.791 351.051ZM300.223 352.267C293.021 364.612 284.417 382.382 273.475 383.037C267.77 383.411 263.094 381.073 261.504 376.303C260.662 373.871 260.662 364.519 270.576 358.346C275.813 355.073 285.446 352.174 300.223 352.267ZM353.906 316.073C352.316 313.174 341.56 317.57 341.56 317.57C329.963 319.908 317.899 316.728 304.244 317.944C290.216 319.066 277.964 324.304 277.964 336.462C277.964 348.246 293.395 345.534 297.978 342.26C301.532 339.735 303.964 336.555 304.244 332.253C304.431 329.26 302.28 323.181 301.906 325.987C301.251 331.224 300.597 336.275 295.827 340.483C290.216 345.44 280.021 344.879 280.115 336.462C280.302 325.8 291.806 320.563 304.057 319.534C318.179 318.224 325.1 321.124 336.51 319.908C324.913 322.901 312.755 331.692 301.345 350.49C280.209 350.584 273.381 354.418 268.518 357.411C258.698 363.584 258.324 373.591 259.166 376.209C261.13 382.569 267.115 385.468 273.288 385.094C289.748 384.159 298.259 368.634 307.05 352.735C307.05 352.548 307.144 352.454 307.237 352.267C308.733 352.267 310.23 352.361 311.82 352.361C315.935 352.548 319.769 352.641 323.23 352.641C323.136 352.735 323.136 352.828 323.136 352.922C317.805 367.325 315.187 382.569 323.51 386.123C327.438 387.806 331.834 387.994 336.136 384.346C337.632 383.13 339.409 379.67 338.568 379.576C337.726 379.483 336.043 382.85 333.704 384.253C330.15 386.31 325.848 386.03 323.978 382.85C321.079 378.08 324.913 364.706 327.812 356.85C328.28 355.541 328.841 354.044 329.402 352.548C340.719 352.267 346.611 350.21 346.33 346.562C346.143 347.123 344.927 350.303 330.057 350.864C334.546 339.454 341.56 325.613 348.481 319.534C350.539 318.879 355.215 318.505 353.906 316.073Z" fill="black"/>
<path d="M351.306 315C350.061 315.004 348.563 315.284 347.116 315.653C344.228 316.389 341.55 317.484 341.537 317.489C329.967 319.819 317.906 316.643 304.237 317.86C297.214 318.422 290.633 320.013 285.799 322.993C280.965 325.973 277.88 330.355 277.88 336.462C277.88 339.426 278.854 341.494 280.391 342.862C281.927 344.23 284.018 344.897 286.245 345.091C290.7 345.479 295.708 343.985 298.027 342.329C301.593 339.795 304.046 336.589 304.328 332.259C304.423 330.739 303.929 328.47 303.364 326.917C303.082 326.14 302.793 325.548 302.511 325.299C302.441 325.236 302.368 325.193 302.287 325.183C302.206 325.174 302.123 325.207 302.062 325.269C301.94 325.394 301.87 325.618 301.823 325.976C301.168 331.213 300.519 336.231 295.771 340.42C292.986 342.88 289.055 343.972 285.846 343.404C284.242 343.121 282.82 342.424 281.804 341.282C280.789 340.139 280.176 338.549 280.199 336.462C280.292 331.161 283.192 327.216 287.606 324.456C292.021 321.696 297.948 320.13 304.064 319.617H304.064H304.065C317.835 318.34 324.784 321.045 335.733 320.044C324.348 323.224 312.461 332.03 301.298 350.406C280.189 350.506 273.336 354.347 268.474 357.339H268.474H268.473C263.546 360.436 260.985 364.499 259.764 368.115C258.543 371.731 258.654 374.892 259.086 376.234C261.062 382.632 267.091 385.553 273.293 385.177C281.548 384.708 287.814 380.576 293.107 374.581C298.401 368.585 302.728 360.724 307.123 352.775L307.134 352.756V352.734C307.134 352.654 307.152 352.601 307.183 352.538C307.209 352.487 307.248 352.422 307.286 352.351C308.762 352.353 310.241 352.444 311.816 352.444C315.879 352.628 319.662 352.72 323.089 352.723C323.066 352.787 323.055 352.848 323.054 352.901C320.388 360.104 318.4 367.517 318.119 373.586C317.978 376.621 318.264 379.321 319.112 381.491C319.96 383.661 321.375 385.302 323.477 386.199C327.423 387.891 331.864 388.076 336.189 384.41C336.955 383.788 337.773 382.615 338.303 381.578C338.568 381.059 338.761 380.576 338.835 380.206C338.873 380.021 338.882 379.863 338.847 379.735C338.812 379.607 338.712 379.507 338.577 379.492C338.443 379.477 338.307 379.53 338.167 379.622C338.027 379.713 337.88 379.846 337.721 380.011C337.403 380.34 337.041 380.797 336.632 381.299C335.814 382.304 334.813 383.488 333.662 384.179C333.662 384.179 333.662 384.179 333.662 384.179C333.661 384.179 333.661 384.179 333.661 384.179C331.899 385.199 329.952 385.638 328.22 385.43C326.487 385.222 324.972 384.372 324.05 382.806H324.05H324.05C322.627 380.465 322.846 375.938 323.803 371.023C324.76 366.108 326.443 360.803 327.891 356.879H327.891C328.353 355.586 328.907 354.108 329.462 352.63C335.095 352.487 339.385 351.904 342.243 350.897C343.677 350.392 344.752 349.78 345.455 349.056C346.158 348.332 346.486 347.491 346.414 346.556L346.25 346.536C346.205 346.673 346.102 346.958 345.739 347.334C345.376 347.71 344.752 348.172 343.667 348.637C341.511 349.559 337.52 350.485 330.186 350.772C334.671 339.399 341.657 325.651 348.523 319.61C349.54 319.289 351.215 319.031 352.486 318.549C353.124 318.307 353.663 318.009 353.967 317.598C354.271 317.188 354.317 316.661 353.979 316.034H353.979C353.769 315.65 353.406 315.389 352.947 315.227C352.487 315.065 351.928 314.998 351.306 315.001L351.306 315ZM351.306 315.168C351.916 315.166 352.458 315.232 352.891 315.385C353.323 315.537 353.645 315.773 353.832 316.114C354.148 316.702 354.101 317.134 353.832 317.498C353.563 317.862 353.051 318.154 352.426 318.391C351.177 318.865 349.497 319.122 348.456 319.454L348.439 319.459L348.426 319.471C341.479 325.573 334.47 339.417 329.979 350.834L329.932 350.953L330.06 350.948C337.501 350.667 341.531 349.732 343.733 348.791C344.833 348.32 345.478 347.846 345.86 347.451C346.039 347.265 346.152 347.1 346.235 346.958C346.198 347.687 345.909 348.347 345.335 348.938C344.658 349.635 343.606 350.239 342.187 350.738C339.35 351.738 335.054 352.324 329.4 352.464L329.344 352.466L329.323 352.519C328.762 354.015 328.201 355.512 327.733 356.822C326.282 360.753 324.598 366.063 323.638 370.992C322.678 375.92 322.43 380.464 323.905 382.893C323.906 382.893 323.906 382.893 323.906 382.893C323.906 382.893 323.906 382.893 323.906 382.893C324.855 384.505 326.425 385.385 328.2 385.598C329.975 385.811 331.955 385.362 333.747 384.325H333.747H333.748C334.934 383.613 335.943 382.413 336.762 381.406C337.172 380.903 337.534 380.448 337.842 380.129C337.996 379.969 338.136 379.843 338.259 379.763C338.381 379.683 338.482 379.651 338.558 379.66C338.634 379.668 338.662 379.697 338.685 379.78C338.708 379.864 338.705 380.002 338.671 380.174C338.602 380.516 338.415 380.992 338.154 381.502C337.632 382.522 336.813 383.687 336.083 384.281H336.082H336.081C331.802 387.909 327.453 387.72 323.543 386.045H323.543C321.483 385.166 320.104 383.568 319.269 381.43C318.433 379.292 318.147 376.614 318.287 373.594C318.567 367.553 320.551 360.147 323.215 352.95L323.22 352.936V352.921C323.22 352.828 323.215 352.774 323.289 352.7L323.432 352.556H323.23C319.771 352.556 315.937 352.463 311.823 352.276H311.821H311.82C310.233 352.276 308.737 352.182 307.237 352.182H307.185L307.162 352.229C307.118 352.317 307.072 352.386 307.033 352.463C307 352.528 306.982 352.607 306.976 352.694C302.58 360.643 298.256 368.494 292.982 374.469C287.707 380.445 281.488 384.543 273.283 385.009H273.283C267.139 385.382 261.197 382.504 259.246 376.184H259.245C258.835 374.907 258.712 371.755 259.923 368.17C261.133 364.585 263.669 360.558 268.562 357.483C273.423 354.492 280.219 350.668 301.345 350.574H301.392L301.417 350.534C312.819 331.749 324.959 322.976 336.531 319.99L336.501 319.825C325.109 321.039 318.185 318.14 304.049 319.451H304.05C297.914 319.966 291.965 321.534 287.517 324.315C283.07 327.096 280.125 331.1 280.031 336.461C280.007 338.582 280.634 340.219 281.678 341.394C282.723 342.569 284.183 343.282 285.817 343.571C289.085 344.149 293.057 343.043 295.882 340.546C300.674 336.318 301.335 331.235 301.989 325.998C302.035 325.655 302.115 325.456 302.182 325.387C302.215 325.353 302.236 325.347 302.267 325.351C302.298 325.355 302.345 325.376 302.4 325.425C302.621 325.62 302.928 326.208 303.206 326.975C303.764 328.508 304.252 330.776 304.16 332.248C303.882 336.522 301.471 339.676 297.929 342.192C295.665 343.81 290.666 345.308 286.26 344.924C284.056 344.733 282.002 344.073 280.502 342.737C279.002 341.402 278.048 339.39 278.048 336.462C278.048 330.412 281.088 326.095 285.887 323.137C290.686 320.178 297.245 318.589 304.251 318.028H304.251H304.252C317.889 316.814 329.954 319.996 341.577 317.653L341.585 317.651L341.592 317.648C341.592 317.648 344.277 316.551 347.157 315.816C348.598 315.449 350.086 315.173 351.306 315.169L351.306 315.168ZM344.163 319.826C340.844 320.48 335.682 321.419 329.426 325.566C323.17 329.713 315.82 337.066 308.099 350.542L308.027 350.668H308.172C309.663 350.668 311.158 350.761 312.749 350.761C316.96 351.042 320.609 351.136 323.791 351.136H323.848L323.869 351.082C328.915 338 337.147 325.38 344.23 319.975L344.163 319.826ZM343.86 320.06C336.799 325.604 328.729 338.044 323.735 350.966C320.569 350.965 316.944 350.873 312.76 350.594H312.758H312.755C311.219 350.594 309.771 350.509 308.319 350.503C316.003 337.127 323.309 329.823 329.519 325.707C335.563 321.7 340.534 320.714 343.86 320.061V320.06ZM300.223 352.183C285.435 352.09 275.788 354.989 270.531 358.275C265.558 361.372 263.066 365.271 261.927 368.701C260.787 372.131 260.992 375.082 261.424 376.33C261.424 376.33 261.424 376.33 261.424 376.33C261.424 376.33 261.424 376.33 261.424 376.33C263.027 381.138 267.749 383.495 273.48 383.12C278.995 382.79 283.895 378.159 288.32 372.084C292.744 366.009 296.696 358.479 300.295 352.309L300.368 352.183H300.223ZM300.076 352.354C296.493 358.506 292.569 365.966 288.184 371.987C283.77 378.046 278.897 382.628 273.47 382.953H273.469C267.79 383.325 263.16 381.007 261.583 376.277H261.583C261.173 375.092 260.957 372.152 262.086 368.755C263.214 365.358 265.679 361.495 270.62 358.419C275.819 355.169 285.397 352.283 300.076 352.355L300.076 352.354Z" fill="black"/>
<path d="M338.351 354.044C338.164 354.699 337.696 356.102 336.106 359.282C335.826 359.749 335.451 360.404 335.919 360.685C336.387 360.872 336.667 360.778 337.041 360.03C338.164 357.785 338.725 356.289 339.473 354.699C343.12 356.476 342.185 359.375 340.034 363.397C338.725 365.828 337.509 367.792 337.228 369.943C336.948 372.843 338.538 374.994 341.437 375.836C345.645 377.051 352.192 364.332 354.156 360.872C354.623 359.936 354.81 359.375 354.249 359.095C353.782 358.908 353.314 359.749 352.753 360.872C351.35 363.584 344.523 374.62 342.466 374.246C340.782 373.965 343.12 369.195 345.645 363.958C347.796 359.562 346.113 356.944 342.84 355.354C340.876 354.418 340.969 352.922 341.904 351.145C342.559 349.929 343.027 347.778 341.53 347.123C337.977 345.346 336.013 352.267 338.351 354.044Z" fill="black"/>
<path d="M340.273 346.756C339.868 346.779 339.494 346.915 339.159 347.135C338.491 347.576 337.979 348.345 337.653 349.222C337.327 350.099 337.187 351.086 337.278 351.972C337.366 352.833 337.677 353.597 338.254 354.066C338.064 354.726 337.598 356.11 336.031 359.244L336.034 359.239C335.894 359.473 335.726 359.757 335.651 360.031C335.614 360.168 335.599 360.305 335.63 360.433C335.661 360.561 335.742 360.676 335.876 360.757L335.882 360.76L335.888 360.763C336.132 360.86 336.353 360.89 336.555 360.782C336.758 360.674 336.926 360.448 337.117 360.067C338.221 357.859 338.784 356.376 339.511 354.82C341.25 355.693 341.89 356.805 341.844 358.203C341.799 359.625 341.034 361.349 339.96 363.357C338.652 365.786 337.429 367.757 337.145 369.933V369.934L337.145 369.936C336.861 372.87 338.486 375.067 341.414 375.917H341.414C342.509 376.233 343.734 375.645 344.979 374.561C346.225 373.477 347.501 371.889 348.708 370.156C351.12 366.689 353.25 362.641 354.23 360.914L354.231 360.912L354.232 360.91C354.467 360.44 354.635 360.063 354.673 359.748C354.692 359.591 354.677 359.447 354.613 359.322C354.55 359.197 354.44 359.096 354.288 359.02L354.285 359.019L354.282 359.017C354.14 358.96 353.989 358.984 353.856 359.064C353.722 359.143 353.597 359.273 353.47 359.442C353.217 359.779 352.96 360.272 352.679 360.834C351.981 362.183 349.923 365.621 347.787 368.668C346.718 370.192 345.629 371.619 344.683 372.638C344.21 373.148 343.771 373.556 343.393 373.821C343.015 374.087 342.698 374.203 342.481 374.163H342.481H342.48C342.29 374.131 342.17 374.045 342.089 373.897C342.008 373.75 341.971 373.535 341.982 373.26C342.003 372.709 342.213 371.927 342.557 370.99C343.244 369.115 344.459 366.614 345.721 363.995H345.722C346.804 361.784 346.927 360.002 346.355 358.573C345.784 357.144 344.525 356.079 342.877 355.279H342.877H342.876C341.91 354.819 341.469 354.238 341.368 353.553C341.267 352.869 341.516 352.066 341.979 351.186H341.979C342.312 350.567 342.596 349.717 342.608 348.927C342.62 348.136 342.347 347.391 341.565 347.048C341.111 346.822 340.677 346.734 340.273 346.757L340.273 346.756ZM340.283 346.92C340.657 346.898 341.06 346.982 341.493 347.199L341.495 347.2L341.497 347.202C342.212 347.515 342.452 348.172 342.441 348.924C342.429 349.676 342.153 350.51 341.831 351.107H341.831C341.359 352.003 341.093 352.836 341.202 353.578C341.312 354.32 341.806 354.955 342.804 355.43C344.429 356.22 345.649 357.259 346.199 358.635C346.75 360.012 346.639 361.738 345.57 363.922C344.308 366.54 343.091 369.042 342.399 370.932C342.053 371.876 341.836 372.667 341.814 373.253C341.802 373.546 341.839 373.791 341.942 373.978C342.045 374.166 342.221 374.29 342.451 374.328C342.748 374.382 343.095 374.235 343.49 373.959C343.884 373.682 344.328 373.267 344.806 372.753C345.762 371.723 346.853 370.292 347.924 368.764C350.066 365.71 352.123 362.274 352.829 360.91H352.829C353.109 360.35 353.366 359.861 353.605 359.544C353.724 359.385 353.838 359.27 353.941 359.209C354.043 359.149 354.125 359.138 354.217 359.174C354.342 359.238 354.419 359.311 354.463 359.398C354.508 359.487 354.522 359.594 354.506 359.729C354.474 359.999 354.315 360.37 354.082 360.835C353.097 362.57 350.973 366.608 348.57 370.06C347.368 371.787 346.096 373.367 344.869 374.435C343.642 375.502 342.47 376.047 341.461 375.756H341.461C338.591 374.923 337.036 372.818 337.312 369.954C337.59 367.828 338.798 365.871 340.108 363.438H340.109C341.186 361.424 341.965 359.687 342.012 358.21C342.06 356.733 341.353 355.522 339.51 354.624L339.433 354.587L339.397 354.664C338.647 356.258 338.087 357.752 336.966 359.993C336.782 360.361 336.624 360.556 336.476 360.635C336.33 360.713 336.178 360.696 335.96 360.61C335.863 360.55 335.814 360.481 335.793 360.394C335.772 360.305 335.78 360.197 335.813 360.076C335.879 359.836 336.038 359.559 336.178 359.326L336.18 359.323L336.181 359.32C337.773 356.137 338.243 354.728 338.432 354.068L338.447 354.013L338.402 353.979C337.843 353.554 337.533 352.812 337.445 351.956C337.358 351.1 337.493 350.134 337.81 349.281C338.127 348.428 338.626 347.689 339.252 347.277C339.565 347.07 339.909 346.943 340.283 346.921L340.283 346.92Z" fill="black"/>
<path d="M338.865 343.009C339.239 340.016 340.829 338.613 345.505 338.145C350.182 337.771 355.045 339.268 360.656 340.671C355.232 352.548 350.182 366.67 350.743 370.879C351.21 375.274 356.074 376.958 359.254 373.404C362.059 370.318 364.397 366.109 366.923 361.339C367.484 360.217 367.671 359.469 367.297 359.282C367.016 359.188 366.736 359.095 366.174 360.217C364.21 364.145 361.966 368.073 359.815 370.785C357.196 374.152 354.11 375.462 355.326 370.131C357.009 363.21 362.153 350.491 365.987 341.886C371.318 343.009 377.397 343.57 384.505 342.354C386.189 342.073 391.145 340.951 393.203 338.145C394.138 336.836 394.793 334.872 392.922 334.03C391.239 333.282 388.901 335.153 389.088 336.555C389.181 337.771 388.901 340.109 383.57 341.232C377.491 342.541 371.786 341.886 366.548 340.764C367.858 337.958 368.98 335.714 369.728 334.498C371.038 332.347 372.347 330.383 370.289 329.728C367.11 328.98 365.894 330.102 364.959 331.879C363.743 334.124 362.433 336.743 361.218 339.548C357.009 338.426 353.174 337.397 349.621 337.023C342.887 336.555 339.987 337.304 336.901 339.642C335.031 341.045 334.563 342.822 335.311 344.224C335.966 345.534 338.491 345.347 338.865 343.009Z" fill="black"/>
<path d="M368.241 329.415C367.656 329.443 367.165 329.571 366.745 329.781C365.904 330.202 365.356 330.945 364.884 331.84C363.677 334.068 362.379 336.667 361.171 339.449C356.99 338.335 353.173 337.312 349.629 336.939H349.628H349.626C342.885 336.471 339.95 337.227 336.851 339.575C334.96 340.993 334.469 342.821 335.236 344.262C335.236 344.262 335.237 344.262 335.237 344.262C335.584 344.956 336.421 345.248 337.212 345.066C338.004 344.883 338.757 344.219 338.948 343.021V343.02L338.949 343.018C339.134 341.534 339.614 340.464 340.623 339.696C341.632 338.928 343.183 338.461 345.514 338.228C350.139 337.858 354.968 339.33 360.539 340.726C357.84 346.643 355.238 353.106 353.376 358.623C352.44 361.395 351.691 363.928 351.21 366.034C350.73 368.139 350.517 369.814 350.66 370.888C350.66 370.888 350.66 370.888 350.66 370.888C350.897 373.114 352.253 374.665 353.956 375.201C355.66 375.737 357.708 375.256 359.316 373.458C362.131 370.361 364.471 366.147 366.997 361.377H366.997L366.998 361.375C367.28 360.811 367.47 360.339 367.543 359.974C367.579 359.792 367.587 359.636 367.557 359.504C367.526 359.372 367.45 359.263 367.334 359.205L367.329 359.202L367.323 359.2C367.183 359.153 366.999 359.099 366.797 359.22C366.596 359.341 366.382 359.61 366.099 360.177C364.136 364.103 361.893 368.028 359.749 370.731H359.748C359.097 371.569 358.417 372.278 357.785 372.785C357.153 373.293 356.568 373.596 356.125 373.634C355.904 373.653 355.721 373.609 355.571 373.498C355.422 373.388 355.303 373.205 355.227 372.931C355.074 372.382 355.105 371.473 355.407 370.147V370.149C357.083 363.258 362.208 350.579 366.038 341.978C371.36 343.093 377.428 343.648 384.519 342.435C386.212 342.153 391.181 341.042 393.271 338.193H393.271H393.271C393.745 337.53 394.15 336.702 394.198 335.917C394.247 335.131 393.917 334.385 392.957 333.953H392.956C392.078 333.562 391.043 333.855 390.255 334.417C389.466 334.979 388.904 335.814 389.004 336.566L389.004 336.561C389.05 337.158 389.006 338.017 388.298 338.874C387.59 339.731 386.207 340.59 383.552 341.148H383.552C377.529 342.446 371.875 341.808 366.672 340.7C367.959 337.947 369.066 335.734 369.8 334.541H369.8C370.454 333.466 371.112 332.438 371.352 331.574C371.472 331.142 371.488 330.746 371.33 330.411C371.172 330.076 370.843 329.816 370.315 329.647L370.312 329.646H370.309C369.508 329.457 368.827 329.386 368.241 329.414L368.241 329.415ZM368.251 329.582C368.816 329.555 369.479 329.624 370.266 329.809C370.765 329.968 371.044 330.199 371.178 330.483C371.312 330.767 371.304 331.12 371.191 331.529C370.963 332.349 370.312 333.378 369.656 334.454C368.904 335.677 367.782 337.922 366.472 340.728L366.428 340.824L366.531 340.846C371.774 341.97 377.492 342.626 383.587 341.314C386.264 340.75 387.686 339.879 388.427 338.982C389.169 338.085 389.219 337.167 389.172 336.549L389.171 336.547L389.171 336.544C389.084 335.893 389.598 335.092 390.352 334.554C391.107 334.017 392.083 333.749 392.888 334.107C393.797 334.516 394.076 335.173 394.031 335.907C393.985 336.642 393.596 337.45 393.134 338.096C391.108 340.858 386.165 341.992 384.491 342.271H384.491C377.395 343.485 371.328 342.924 366.005 341.803L365.938 341.79L365.91 341.852C362.075 350.458 356.931 363.174 355.244 370.11H355.244C354.938 371.45 354.898 372.376 355.065 372.976C355.148 373.276 355.285 373.496 355.471 373.634C355.657 373.772 355.888 373.823 356.14 373.801C356.644 373.758 357.245 373.435 357.89 372.917C358.535 372.399 359.223 371.681 359.881 370.836H359.881C362.039 368.115 364.284 364.184 366.249 360.254C366.527 359.698 366.735 359.454 366.884 359.364C367.029 359.277 367.126 359.313 367.26 359.358C367.33 359.393 367.371 359.447 367.393 359.542C367.415 359.638 367.412 359.774 367.378 359.942C367.311 360.279 367.126 360.743 366.847 361.301C364.323 366.069 361.987 370.272 359.191 373.346H359.191C357.62 375.103 355.646 375.557 354.006 375.041C352.367 374.525 351.057 373.037 350.826 370.869L350.826 370.867V370.865C350.689 369.836 350.896 368.167 351.374 366.07C351.853 363.972 352.6 361.444 353.535 358.675C355.404 353.137 358.022 346.639 360.733 340.703L360.775 340.611L360.677 340.586C355.068 339.184 350.198 337.683 345.499 338.059H345.498H345.497C343.152 338.294 341.57 338.762 340.521 339.561C339.473 340.358 338.971 341.485 338.782 342.993C338.6 344.133 337.903 344.732 337.175 344.9C336.447 345.068 335.694 344.799 335.387 344.184L335.386 344.183L335.385 344.181C334.658 342.817 335.103 341.092 336.952 339.705H336.952C340.025 337.377 342.889 336.636 349.614 337.103C349.614 337.103 349.614 337.103 349.615 337.103C353.158 337.476 356.988 338.504 361.196 339.626L361.266 339.644L361.295 339.578C362.509 336.775 363.817 334.158 365.032 331.915H365.033H365.033C365.497 331.034 366.024 330.327 366.82 329.929C367.218 329.73 367.686 329.607 368.251 329.579L368.251 329.582Z" fill="black"/>
<path d="M367.547 357.318C365.957 360.311 362.029 367.699 362.777 370.879C363.806 375.275 367.547 376.678 371.101 373.404C374 370.785 377.367 364.426 379.144 361.152C379.798 359.937 379.892 359.469 379.424 359.282C378.676 359.095 378.676 359.563 377.647 361.339C376.057 364.145 373.158 369.102 371.194 371.347C368.669 374.246 365.957 374.339 367.36 370.131C367.921 368.634 369.698 364.426 372.504 359.469C373.532 357.598 375.59 354.045 373.065 353.67C369.604 353.296 368.389 355.541 367.547 357.318ZM375.87 348.901C375.964 348.807 376.151 348.527 376.338 348.34C377.086 347.217 377.18 345.534 376.432 344.599C376.338 344.505 376.151 344.318 375.964 344.224C375.029 343.57 373.439 343.85 372.41 344.879C372.317 344.973 372.13 345.253 371.942 345.44C371.194 346.563 371.101 348.34 371.849 349.181C371.942 349.275 372.13 349.462 372.317 349.555C373.252 350.21 374.842 349.929 375.87 348.901Z" fill="black"/>
<path d="M375.174 343.822C374.253 343.665 373.141 344.029 372.35 344.82C372.294 344.876 372.226 344.968 372.145 345.073C372.063 345.177 371.971 345.292 371.883 345.381L371.877 345.387L371.872 345.394C371.488 345.97 371.274 346.708 371.25 347.413C371.226 348.118 371.391 348.793 371.786 349.237L371.787 349.239L371.789 349.241C371.882 349.334 372.07 349.524 372.275 349.628C373.257 350.309 374.878 350.012 375.929 348.96C375.986 348.904 376.054 348.811 376.135 348.707C376.216 348.602 376.308 348.488 376.397 348.399L376.403 348.393L376.408 348.386C377.176 347.234 377.278 345.523 376.497 344.546L376.494 344.542L376.491 344.539C376.398 344.446 376.21 344.256 376.004 344.152C375.761 343.983 375.478 343.873 375.174 343.822L375.174 343.822ZM375.143 343.99C375.429 344.037 375.693 344.138 375.916 344.293L375.921 344.297L375.926 344.3C376.092 344.383 376.274 344.561 376.368 344.656C377.08 345.55 376.995 347.201 376.269 348.292C376.174 348.388 376.082 348.501 376.003 348.604C375.92 348.71 375.847 348.804 375.811 348.841C374.807 349.845 373.254 350.109 372.364 349.487L372.359 349.483L372.354 349.48C372.188 349.397 372.004 349.217 371.91 349.124C371.558 348.726 371.395 348.092 371.418 347.419C371.441 346.745 371.648 346.033 372.011 345.488C372.106 345.392 372.198 345.278 372.277 345.176C372.359 345.07 372.432 344.975 372.469 344.938C373.222 344.186 374.284 343.849 375.143 343.99ZM371.862 353.564C370.746 353.653 369.911 354.062 369.268 354.624C368.411 355.375 367.892 356.392 367.471 357.282C366.676 358.779 365.296 361.374 364.207 363.996C363.118 366.62 362.31 369.262 362.695 370.898C363.214 373.116 364.424 374.595 365.966 375.097C367.507 375.599 369.365 375.116 371.157 373.466H371.157C374.083 370.824 377.441 364.465 379.217 361.193H379.217C379.546 360.583 379.737 360.16 379.788 359.846C379.813 359.688 379.802 359.554 379.744 359.444C379.686 359.334 379.584 359.256 379.455 359.205L379.45 359.203L379.444 359.201C379.249 359.152 379.089 359.143 378.946 359.197C378.803 359.25 378.688 359.362 378.572 359.526C378.34 359.855 378.087 360.412 377.574 361.298H377.574C375.985 364.102 373.081 369.062 371.131 371.291C370.504 372.01 369.867 372.554 369.289 372.899C368.712 373.244 368.195 373.385 367.818 373.321C367.441 373.256 367.187 373.003 367.094 372.489C367.002 371.974 367.091 371.202 367.439 370.157C367.439 370.157 367.439 370.157 367.439 370.157C367.999 368.665 369.774 364.461 372.576 359.51H372.577C373.091 358.576 373.866 357.218 374.198 356.032C374.364 355.439 374.422 354.887 374.266 354.444C374.11 354.002 373.729 353.685 373.077 353.588H373.075H373.073C372.636 353.541 372.233 353.535 371.862 353.565L371.862 353.564ZM371.875 353.73C372.235 353.702 372.626 353.708 373.053 353.754C373.663 353.844 373.971 354.112 374.107 354.499C374.244 354.887 374.197 355.41 374.035 355.986C373.713 357.138 372.945 358.492 372.43 359.428C369.622 364.389 367.844 368.599 367.281 370.101L367.28 370.103L367.28 370.105C366.927 371.164 366.829 371.958 366.929 372.519C367.03 373.08 367.348 373.412 367.789 373.487C368.231 373.563 368.778 373.401 369.375 373.044C369.973 372.687 370.621 372.132 371.257 371.402H371.257C373.234 369.142 376.129 364.189 377.72 361.382H377.72C378.235 360.491 378.497 359.926 378.709 359.623C378.816 359.472 378.905 359.391 379.004 359.354C379.102 359.318 379.223 359.322 379.397 359.365C379.498 359.406 379.56 359.456 379.595 359.522C379.631 359.59 379.643 359.684 379.621 359.819C379.578 360.089 379.395 360.508 379.069 361.113C377.292 364.388 373.917 370.748 371.044 373.343H371.044C369.282 374.965 367.492 375.418 366.018 374.938C364.544 374.458 363.368 373.038 362.859 370.86C362.495 369.316 363.277 366.674 364.363 364.061C365.448 361.447 366.826 358.854 367.621 357.358L367.622 357.356L367.622 357.354C368.042 356.468 368.553 355.474 369.379 354.751C369.998 354.209 370.794 353.815 371.875 353.73L371.875 353.73Z" fill="black"/>
<path d="M389.512 348.34H388.951C388.577 348.433 385.678 349.555 384.275 350.958C380.908 354.138 379.786 357.785 378.009 361.059C377.635 361.714 377.073 362.836 377.354 363.116C378.009 363.491 378.383 362.742 378.757 361.994C379.786 360.217 381.937 356.102 381.75 356.85C381.189 358.814 381.002 362.368 383.246 365.455C385.21 367.98 384.93 371.721 382.498 372.936C380.627 373.965 377.354 373.872 377.073 371.814C376.793 370.131 378.383 368.915 377.635 368.447C376.98 368.073 375.016 369.944 375.016 372.188C374.922 374.807 376.606 376.397 379.505 377.052C384.462 378.174 387.829 374.9 390.635 371.908C392.879 369.476 396.714 363.491 398.304 360.217C398.491 359.843 398.304 359.469 398.023 359.282C397.556 359.188 397.368 359.375 397.275 359.656C396.153 361.901 393.534 366.577 390.822 369.757C390.541 370.037 390.261 370.411 390.073 370.598C390.073 370.411 389.98 369.85 389.98 369.663C389.793 364.519 384.462 361.714 385.865 356.476C386.8 352.455 389.232 350.397 389.512 350.304C390.167 349.836 390.541 349.275 390.448 348.901C390.354 348.433 389.98 348.246 389.512 348.34Z" fill="black"/>
<path d="M389.851 348.239C389.738 348.226 389.618 348.232 389.494 348.257L389.511 348.255H388.939L388.929 348.258C388.822 348.285 388.575 348.372 388.227 348.513C387.878 348.654 387.436 348.848 386.96 349.083C386.01 349.552 384.93 350.184 384.216 350.897C384.215 350.897 384.215 350.899 384.214 350.899C384.214 350.899 384.214 350.899 384.214 350.899C380.832 354.094 379.705 357.756 377.933 361.019L377.934 361.017C377.746 361.347 377.511 361.793 377.356 362.198C377.278 362.4 377.221 362.592 377.201 362.758C377.18 362.925 377.193 363.076 377.293 363.175L377.301 363.184L377.311 363.189C377.488 363.29 377.659 363.32 377.813 363.286C377.968 363.252 378.102 363.158 378.22 363.033C378.456 362.785 378.642 362.408 378.828 362.036L378.831 362.031C379.347 361.14 380.139 359.671 380.781 358.516C381.102 357.937 381.386 357.438 381.575 357.132C381.59 357.109 381.593 357.109 381.606 357.088C381.094 359.113 381.003 362.515 383.176 365.504L383.178 365.505L383.178 365.507C384.147 366.752 384.562 368.299 384.435 369.68C384.309 371.06 383.645 372.269 382.459 372.862H382.457L382.456 372.864C381.54 373.368 380.266 373.6 379.2 373.451C378.666 373.376 378.186 373.207 377.825 372.936C377.465 372.666 377.223 372.297 377.155 371.804L377.155 371.802L377.155 371.801C377.019 370.987 377.335 370.283 377.604 369.711C377.738 369.425 377.861 369.175 377.904 368.95C377.926 368.838 377.927 368.729 377.892 368.629C377.856 368.53 377.784 368.443 377.678 368.376L377.676 368.375L377.675 368.373C377.469 368.255 377.195 368.319 376.906 368.484C376.618 368.649 376.305 368.924 376.013 369.281C375.43 369.996 374.931 371.039 374.93 372.186C374.93 372.186 374.93 372.186 374.93 372.188C374.884 373.514 375.29 374.592 376.076 375.414C376.863 376.236 378.024 376.803 379.485 377.133C381.984 377.699 384.092 377.155 385.917 376.095C387.742 375.035 389.29 373.462 390.694 371.965H390.694H390.695C392.953 369.518 396.781 363.54 398.377 360.255C398.48 360.048 398.481 359.835 398.415 359.652C398.35 359.469 398.222 359.316 398.067 359.213L398.053 359.203L398.037 359.2C397.791 359.151 397.602 359.174 397.463 359.257C397.323 359.341 397.243 359.479 397.193 359.63L397.197 359.619C396.077 361.859 393.458 366.534 390.755 369.703C390.517 369.942 390.309 370.206 390.135 370.401C390.126 370.308 390.121 370.231 390.108 370.121C390.084 369.934 390.062 369.744 390.062 369.664V369.662V369.661C389.967 367.06 388.575 365.058 387.396 363.063C386.218 361.067 385.25 359.088 385.944 356.498L385.944 356.497L385.945 356.495C386.409 354.497 387.245 352.987 387.999 351.967C388.376 351.456 388.733 351.068 389.011 350.802C389.151 350.67 389.27 350.568 389.362 350.497C389.455 350.426 389.528 350.386 389.537 350.383L389.549 350.379L389.559 350.372C389.893 350.133 390.157 349.87 390.328 349.614C390.499 349.357 390.582 349.103 390.527 348.881C390.476 348.63 390.344 348.442 390.16 348.337C390.067 348.284 389.962 348.251 389.85 348.238L389.851 348.239ZM389.831 348.405C389.923 348.416 390.006 348.442 390.077 348.483C390.219 348.564 390.321 348.702 390.363 348.917L390.364 348.919L390.364 348.921C390.402 349.073 390.345 349.286 390.189 349.52C390.033 349.755 389.782 350.006 389.462 350.235L389.484 350.224C389.422 350.245 389.359 350.289 389.26 350.364C389.162 350.44 389.039 350.545 388.896 350.681C388.61 350.954 388.248 351.349 387.865 351.867C387.099 352.903 386.253 354.433 385.782 356.454C385.782 356.454 385.782 356.456 385.782 356.457C385.782 356.457 385.781 356.457 385.781 356.457C385.074 359.103 386.07 361.145 387.252 363.147C388.435 365.15 389.802 367.122 389.894 369.666V369.663C389.894 369.77 389.918 369.954 389.942 370.141C389.965 370.328 389.988 370.518 389.988 370.598V370.801L390.131 370.657C390.328 370.46 390.605 370.09 390.879 369.816L390.882 369.813L390.884 369.811C393.605 366.62 396.223 361.943 397.348 359.693L397.351 359.688L397.353 359.682C397.396 359.552 397.456 359.457 397.55 359.4C397.641 359.346 397.777 359.324 397.983 359.362C398.104 359.446 398.208 359.567 398.258 359.707C398.31 359.852 398.31 360.012 398.227 360.179C396.642 363.441 392.802 369.433 390.572 371.849C389.17 373.344 387.632 374.904 385.833 375.948C384.035 376.993 381.98 377.525 379.523 376.968C378.084 376.643 376.954 376.088 376.198 375.297C375.442 374.506 375.053 373.48 375.099 372.19V372.188V372.186C375.099 371.088 375.582 370.075 376.144 369.387C376.425 369.043 376.726 368.78 376.99 368.629C377.253 368.479 377.469 368.449 377.591 368.518C377.67 368.568 377.712 368.621 377.734 368.683C377.756 368.746 377.758 368.823 377.74 368.916C377.704 369.104 377.587 369.35 377.452 369.637C377.183 370.21 376.845 370.955 376.99 371.824C377.063 372.36 377.335 372.774 377.725 373.067C378.116 373.361 378.623 373.537 379.177 373.614C380.284 373.769 381.58 373.533 382.534 373.01H382.535C383.78 372.387 384.472 371.117 384.603 369.693C384.733 368.268 384.307 366.683 383.313 365.404L383.311 365.401C381.088 362.342 381.274 358.814 381.829 356.871L381.83 356.87L381.83 356.868C381.837 356.842 381.841 356.821 381.843 356.8C381.845 356.779 381.851 356.76 381.831 356.722C381.821 356.704 381.795 356.681 381.768 356.676C381.741 356.67 381.721 356.677 381.708 356.683C381.681 356.695 381.67 356.708 381.656 356.723C381.599 356.781 381.53 356.886 381.433 357.042C381.24 357.353 380.957 357.853 380.635 358.432C379.992 359.59 379.196 361.063 378.683 361.95L378.682 361.952L378.681 361.954C378.494 362.328 378.306 362.697 378.099 362.916C377.995 363.025 377.889 363.095 377.778 363.12C377.671 363.143 377.552 363.121 377.411 363.045C377.373 363.002 377.351 362.915 377.368 362.776C377.385 362.633 377.439 362.451 377.513 362.256C377.662 361.865 377.895 361.423 378.081 361.098L378.081 361.097H378.081C379.864 357.813 380.981 354.181 384.331 351.017H384.332H384.333C385.022 350.328 386.092 349.698 387.035 349.232C387.506 348.999 387.946 348.807 388.29 348.668C388.631 348.53 388.88 348.444 388.963 348.423H389.519L389.527 348.421C389.637 348.399 389.739 348.394 389.831 348.404L389.831 348.405Z" fill="black"/>
<path d="M382.521 343.009C382.896 340.016 384.485 338.613 389.162 338.145C393.838 337.771 398.701 339.268 404.313 340.671C398.888 352.548 393.838 366.67 394.399 370.879C394.867 375.274 399.73 376.958 402.91 373.404C405.716 370.318 408.054 366.109 410.579 361.339C411.14 360.217 411.327 359.469 410.953 359.282C410.672 359.188 410.392 359.095 409.831 360.217C407.867 364.145 405.622 368.073 403.471 370.785C400.852 374.152 397.766 375.462 398.982 370.131C400.665 363.21 405.809 350.491 409.644 341.886C414.975 343.009 421.054 343.57 428.161 342.354C429.845 342.073 434.802 340.951 436.859 338.145C437.795 336.836 438.449 334.872 436.579 334.03C434.895 333.282 432.557 335.153 432.744 336.555C432.838 337.771 432.557 340.109 427.226 341.232C421.147 342.541 415.442 341.886 410.205 340.764C411.514 337.958 412.636 335.714 413.385 334.498C414.694 332.347 416.003 330.383 413.946 329.728C410.766 328.98 409.55 330.102 408.615 331.879C407.399 334.124 406.09 336.743 404.874 339.548C400.665 338.426 396.831 337.397 393.277 337.023C386.543 336.555 383.644 337.304 380.557 339.642C378.687 341.045 378.219 342.822 378.967 344.224C379.622 345.534 382.147 345.347 382.521 343.009Z" fill="black"/>
<path d="M411.898 329.415C411.312 329.443 410.821 329.571 410.401 329.782C409.56 330.202 409.011 330.945 408.54 331.84C407.333 334.068 406.035 336.667 404.827 339.45C400.646 338.335 396.829 337.312 393.286 336.939H393.284H393.282C386.541 336.471 383.606 337.227 380.507 339.575C378.616 340.993 378.125 342.821 378.893 344.262C378.893 344.262 378.893 344.262 378.893 344.262C379.24 344.956 380.077 345.249 380.869 345.066C381.66 344.883 382.413 344.219 382.605 343.021V343.02L382.605 343.018C382.79 341.534 383.27 340.464 384.279 339.696C385.288 338.928 386.839 338.461 389.17 338.228C393.796 337.858 398.624 339.33 404.195 340.726C401.497 346.643 398.894 353.106 397.032 358.623C396.096 361.395 395.347 363.928 394.867 366.034C394.387 368.138 394.173 369.812 394.316 370.887C394.553 373.114 395.908 374.665 397.612 375.202C399.316 375.738 401.364 375.257 402.972 373.459C405.788 370.362 408.127 366.148 410.653 361.378V361.376C410.935 360.811 411.125 360.34 411.198 359.975C411.234 359.793 411.242 359.637 411.212 359.505C411.181 359.373 411.105 359.264 410.989 359.206L410.984 359.203L410.978 359.201C410.838 359.154 410.654 359.099 410.453 359.22C410.251 359.341 410.038 359.611 409.754 360.178C407.792 364.103 405.548 368.029 403.404 370.732C402.753 371.57 402.072 372.279 401.441 372.786C400.809 373.293 400.223 373.596 399.78 373.635C399.559 373.654 399.376 373.61 399.227 373.499C399.077 373.388 398.958 373.206 398.882 372.932C398.73 372.383 398.761 371.474 399.063 370.149V370.147C399.063 370.147 399.063 370.147 399.063 370.147C400.739 363.256 405.863 350.579 409.694 341.978C415.016 343.093 421.084 343.648 428.174 342.435C429.867 342.153 434.836 341.042 436.926 338.193C437.399 337.53 437.805 336.702 437.853 335.917C437.902 335.131 437.572 334.385 436.611 333.953C435.733 333.562 434.699 333.855 433.91 334.417C433.121 334.979 432.559 335.814 432.66 336.566V336.561C432.705 337.158 432.662 338.017 431.954 338.874C431.246 339.731 429.862 340.59 427.208 341.149C421.185 342.446 415.531 341.808 410.328 340.7C411.615 337.947 412.722 335.734 413.456 334.541C414.11 333.466 414.768 332.438 415.008 331.574C415.128 331.142 415.144 330.746 414.986 330.411C414.828 330.076 414.499 329.816 413.971 329.647L413.967 329.646H413.964C413.164 329.457 412.483 329.386 411.897 329.414L411.898 329.415ZM411.908 329.582C412.472 329.555 413.135 329.624 413.922 329.809C414.421 329.968 414.7 330.199 414.834 330.483C414.968 330.767 414.961 331.12 414.847 331.529C414.619 332.349 413.968 333.378 413.313 334.454C412.56 335.677 411.438 337.922 410.128 340.728L410.084 340.824L410.187 340.846C415.43 341.97 421.148 342.627 427.243 341.314C429.92 340.75 431.342 339.879 432.084 338.982C432.825 338.085 432.875 337.167 432.828 336.549V336.547V336.544C432.741 335.893 433.255 335.092 434.009 334.555C434.764 334.017 435.74 333.749 436.545 334.107C437.454 334.516 437.733 335.173 437.687 335.907C437.642 336.642 437.253 337.45 436.791 338.096C434.765 340.858 429.822 341.992 428.148 342.271C421.052 343.485 414.986 342.924 409.662 341.804L409.595 341.79L409.568 341.852C405.732 350.458 400.588 363.174 398.901 370.11C398.596 371.45 398.556 372.377 398.722 372.976C398.806 373.276 398.943 373.496 399.129 373.634C399.315 373.772 399.545 373.823 399.797 373.802C400.301 373.758 400.902 373.435 401.548 372.917C402.193 372.399 402.88 371.682 403.538 370.836C405.696 368.115 407.941 364.184 409.907 360.254C410.184 359.698 410.392 359.454 410.541 359.364C410.686 359.277 410.783 359.313 410.918 359.358C410.987 359.394 411.028 359.447 411.05 359.542C411.073 359.638 411.069 359.774 411.035 359.942C410.968 360.279 410.784 360.743 410.505 361.301C407.98 366.069 405.644 370.272 402.849 373.347C401.277 375.103 399.304 375.557 397.664 375.041C396.024 374.525 394.715 373.037 394.484 370.869V370.867V370.865C394.347 369.836 394.553 368.167 395.032 366.07C395.51 363.972 396.258 361.444 397.192 358.675C399.062 353.137 401.679 346.639 404.39 340.703L404.432 340.611L404.334 340.586C398.725 339.184 393.855 337.683 389.156 338.059H389.156H389.155C386.809 338.294 385.227 338.762 384.179 339.561C383.131 340.359 382.629 341.485 382.44 342.993C382.257 344.133 381.56 344.732 380.832 344.9C380.104 345.068 379.352 344.799 379.044 344.185L379.044 344.183L379.043 344.181C378.316 342.817 378.761 341.092 380.609 339.705H380.61C383.682 337.377 386.546 336.636 393.271 337.103C393.272 337.103 393.272 337.103 393.272 337.103C396.816 337.477 400.646 338.504 404.853 339.626L404.923 339.644L404.952 339.578C406.167 336.775 407.475 334.158 408.69 331.916C409.154 331.034 409.681 330.327 410.477 329.929C410.875 329.73 411.343 329.607 411.908 329.58L411.908 329.582Z" fill="black"/>
<path d="M412.512 354.044C412.325 354.699 411.857 356.102 410.267 359.282C409.987 359.749 409.613 360.404 410.08 360.685C410.548 360.872 410.828 360.778 411.202 360.03C412.325 357.785 412.886 356.289 413.634 354.699C417.281 356.476 416.346 359.375 414.195 363.397C412.886 365.828 411.67 367.792 411.39 369.943C411.109 372.843 412.699 374.994 415.598 375.836C419.806 377.051 426.353 364.332 428.317 360.872C428.784 359.936 428.971 359.375 428.41 359.095C427.943 358.908 427.475 359.749 426.914 360.872C425.511 363.584 418.684 374.62 416.627 374.246C414.943 373.965 417.281 369.195 419.806 363.958C421.957 359.562 420.274 356.944 417.001 355.354C415.037 354.418 415.13 352.922 416.066 351.145C416.72 349.929 417.188 347.778 415.691 347.123C412.138 345.346 410.174 352.267 412.512 354.044Z" fill="black"/>
<path d="M414.434 346.756C414.03 346.779 413.655 346.915 413.321 347.135C412.652 347.576 412.14 348.345 411.814 349.222C411.488 350.099 411.348 351.086 411.439 351.972C411.527 352.833 411.838 353.597 412.415 354.066C412.225 354.726 411.76 356.11 410.192 359.244L410.195 359.239C410.055 359.473 409.887 359.757 409.812 360.031C409.775 360.168 409.76 360.305 409.791 360.433C409.822 360.561 409.904 360.676 410.037 360.757L410.043 360.76L410.049 360.763C410.293 360.86 410.514 360.89 410.716 360.782C410.919 360.674 411.088 360.448 411.278 360.067C412.382 357.859 412.945 356.376 413.672 354.82C415.411 355.693 416.051 356.805 416.006 358.203C415.96 359.625 415.195 361.349 414.121 363.357C412.813 365.786 411.59 367.757 411.306 369.933V369.934V369.936C411.022 372.87 412.647 375.067 415.575 375.917C416.671 376.233 417.895 375.644 419.141 374.561C420.386 373.477 421.663 371.889 422.869 370.156C425.282 366.689 427.411 362.641 428.391 360.914L428.393 360.912L428.395 360.91C428.63 360.44 428.798 360.063 428.836 359.748C428.854 359.591 428.839 359.447 428.776 359.322C428.712 359.197 428.603 359.096 428.451 359.02L428.448 359.019L428.444 359.017C428.303 358.96 428.152 358.984 428.018 359.064C427.884 359.143 427.759 359.273 427.632 359.442C427.38 359.779 427.122 360.272 426.841 360.834C426.144 362.183 424.086 365.621 421.949 368.668C420.88 370.192 419.792 371.619 418.845 372.638C418.372 373.148 417.934 373.555 417.555 373.821C417.177 374.087 416.861 374.203 416.643 374.163C416.454 374.131 416.334 374.045 416.253 373.897C416.172 373.75 416.134 373.535 416.145 373.26C416.166 372.709 416.377 371.927 416.72 370.989C417.407 369.115 418.623 366.614 419.885 363.995C420.967 361.784 421.091 360.002 420.519 358.573C419.947 357.144 418.688 356.079 417.04 355.279C416.075 354.819 415.634 354.238 415.533 353.553C415.432 352.869 415.68 352.066 416.143 351.186C416.476 350.567 416.76 349.717 416.772 348.927C416.785 348.136 416.511 347.391 415.73 347.049C415.275 346.822 414.841 346.734 414.437 346.757L414.434 346.756ZM414.444 346.92C414.818 346.898 415.222 346.982 415.655 347.199L415.657 347.2L415.658 347.202C416.373 347.515 416.613 348.172 416.602 348.924C416.59 349.676 416.314 350.51 415.992 351.107C415.521 352.003 415.254 352.836 415.364 353.578C415.473 354.32 415.968 354.955 416.966 355.43C418.591 356.22 419.811 357.259 420.361 358.635C420.912 360.012 420.801 361.737 419.732 363.922C418.47 366.54 417.253 369.042 416.561 370.932C416.215 371.876 415.998 372.667 415.976 373.253C415.964 373.546 416.001 373.791 416.104 373.978C416.207 374.166 416.383 374.29 416.613 374.328C416.91 374.382 417.257 374.235 417.652 373.958C418.046 373.682 418.49 373.267 418.968 372.752C419.924 371.723 421.016 370.292 422.087 368.764C424.229 365.71 426.285 362.274 426.991 360.91C427.271 360.35 427.528 359.861 427.766 359.544C427.885 359.385 428 359.27 428.103 359.209C428.205 359.149 428.287 359.138 428.378 359.174C428.504 359.238 428.581 359.311 428.625 359.398C428.67 359.487 428.684 359.594 428.668 359.729C428.635 359.999 428.476 360.37 428.244 360.835C427.259 362.57 425.134 366.608 422.732 370.06C421.529 371.787 420.257 373.367 419.03 374.434C417.803 375.502 416.631 376.047 415.622 375.756C412.752 374.923 411.197 372.818 411.473 369.954C411.751 367.828 412.959 365.871 414.27 363.437C415.347 361.424 416.126 359.687 416.174 358.21C416.221 356.733 415.514 355.522 413.671 354.624L413.595 354.587L413.559 354.664C412.809 356.258 412.248 357.752 411.128 359.993C410.944 360.361 410.786 360.556 410.637 360.635C410.491 360.713 410.339 360.696 410.121 360.61C410.024 360.55 409.976 360.481 409.955 360.394C409.933 360.305 409.942 360.196 409.975 360.076C410.04 359.836 410.2 359.559 410.34 359.326L410.341 359.323L410.343 359.32C411.935 356.137 412.405 354.728 412.593 354.068L412.609 354.013L412.564 353.978C412.004 353.554 411.695 352.812 411.607 351.956C411.519 351.1 411.655 350.134 411.972 349.281C412.289 348.428 412.788 347.689 413.414 347.277C413.727 347.07 414.071 346.943 414.444 346.921L414.444 346.92Z" fill="black"/>
<path d="M448.66 353.671C445.106 354.232 442.206 358.066 439.962 362.649C436.501 368.167 431.171 374.62 429.3 373.872C427.336 373.124 428.739 367.98 431.545 363.117C436.127 355.448 435.286 354.793 432.386 354.232C430.329 353.858 428.178 357.505 426.307 361.527C424.998 364.426 423.595 368.073 423.689 371.066C423.969 375.742 428.458 376.958 431.919 374.714C433.509 373.778 435.473 371.534 437.343 369.009C436.595 370.973 436.034 372.843 435.566 374.433C431.919 386.311 426.307 402.584 415.552 402.584C410.876 402.584 408.257 400.807 406.855 397.533C406.013 395.476 405.171 392.39 407.416 389.49C409.473 386.778 410.783 385.282 409.006 383.692C408.07 382.85 404.797 383.785 403.955 389.303C403.394 392.67 403.862 395.382 404.891 397.627C407.322 402.958 411.157 404.361 415.552 404.361C429.581 404.361 435.66 391.267 440.71 374.433C442.674 367.886 444.077 361.994 447.724 356.757C449.221 354.606 451.278 353.39 448.66 353.671Z" fill="black"/>
<path d="M449.438 353.55C449.239 353.539 448.981 353.552 448.651 353.587H448.649H448.647C445.043 354.156 442.138 358.017 439.889 362.606C438.162 365.36 435.966 368.35 433.973 370.553C432.976 371.655 432.028 372.561 431.22 373.141C430.816 373.431 430.446 373.639 430.126 373.751C429.806 373.862 429.54 373.876 429.332 373.793C428.874 373.619 428.611 373.193 428.512 372.547C428.414 371.901 428.491 371.043 428.717 370.056C429.17 368.081 430.219 365.585 431.618 363.16V363.158C433.911 359.321 434.856 357.244 434.856 356.008C434.856 355.39 434.602 354.978 434.168 354.707C433.734 354.435 433.13 354.29 432.403 354.149C431.863 354.051 431.319 354.218 430.786 354.579C430.254 354.939 429.729 355.492 429.212 356.18C428.176 357.557 427.17 359.478 426.233 361.491C424.922 364.394 423.513 368.046 423.607 371.067V371.069V371.071C423.749 373.435 424.964 374.944 426.584 375.563C428.202 376.182 430.214 375.919 431.964 374.786C433.488 373.889 435.32 371.822 437.096 369.468C436.44 371.251 435.916 372.955 435.488 374.409C433.665 380.346 431.35 387.379 428.154 392.92C424.957 398.462 420.89 402.5 415.554 402.5C410.899 402.5 408.326 400.749 406.934 397.5C406.096 395.452 405.264 392.41 407.484 389.542C408.512 388.187 409.358 387.135 409.728 386.202C409.914 385.736 409.98 385.295 409.88 384.869C409.78 384.442 409.516 384.035 409.063 383.63C408.548 383.166 407.457 383.212 406.395 384.047C405.334 384.882 404.297 386.517 403.874 389.291C403.311 392.672 403.781 395.404 404.816 397.663C406.037 400.341 407.617 402.041 409.445 403.067C411.274 404.093 413.347 404.445 415.554 404.445C422.594 404.445 427.653 401.152 431.568 395.76C435.483 390.367 438.266 382.878 440.792 374.458C442.757 367.908 444.159 362.027 447.795 356.805C448.537 355.739 449.42 354.906 449.806 354.35C449.903 354.212 449.97 354.09 449.993 353.974C450.017 353.857 449.979 353.735 449.879 353.664C449.78 353.593 449.638 353.562 449.439 353.551L449.438 353.55ZM449.428 353.718C449.612 353.728 449.728 353.763 449.78 353.8C449.833 353.838 449.842 353.866 449.827 353.94C449.812 354.014 449.757 354.124 449.667 354.254C449.305 354.774 448.41 355.625 447.656 356.709C443.997 361.962 442.593 367.865 440.63 374.409C438.106 382.823 435.324 390.297 431.43 395.66C427.536 401.023 422.54 404.276 415.552 404.276C413.363 404.276 411.322 403.927 409.526 402.92C407.731 401.912 406.177 400.245 404.967 397.592C403.945 395.362 403.48 392.669 404.038 389.317C404.457 386.573 405.478 384.981 406.497 384.18C407.517 383.378 408.529 383.377 408.949 383.755C409.385 384.145 409.624 384.521 409.714 384.907C409.804 385.293 409.747 385.695 409.57 386.14C409.216 387.031 408.378 388.084 407.349 389.441C405.081 392.371 405.931 395.5 406.777 397.566C408.19 400.864 410.854 402.667 415.552 402.667C420.972 402.667 425.087 398.569 428.297 393.004C431.507 387.44 433.822 380.397 435.646 374.457C436.114 372.868 436.674 370.999 437.421 369.039L437.275 368.959C435.407 371.481 433.441 373.721 431.875 374.642L431.874 374.644H431.872C430.162 375.753 428.201 376.004 426.64 375.407C425.08 374.811 423.91 373.374 423.771 371.062C423.771 371.062 423.771 371.062 423.771 371.062C423.68 368.098 425.075 364.458 426.382 361.563V361.561C427.316 359.553 428.321 357.64 429.342 356.282C429.853 355.602 430.369 355.062 430.877 354.718C431.386 354.374 431.882 354.226 432.37 354.315C433.092 354.454 433.68 354.601 434.077 354.85C434.473 355.098 434.686 355.435 434.686 356.009C434.686 357.157 433.761 359.242 431.471 363.074C430.065 365.511 429.01 368.017 428.551 370.017C428.322 371.017 428.24 371.89 428.344 372.571C428.447 373.251 428.745 373.749 429.268 373.949C429.268 373.949 429.268 373.949 429.268 373.949C429.528 374.052 429.837 374.028 430.18 373.909C430.523 373.789 430.904 373.573 431.316 373.277C432.142 372.685 433.094 371.773 434.096 370.665C436.1 368.451 438.299 365.455 440.032 362.692L440.034 362.689L440.036 362.685C442.276 358.112 445.169 354.306 448.671 353.753C448.671 353.753 448.671 353.753 448.671 353.753C448.993 353.719 449.243 353.707 449.426 353.718L449.428 353.718Z" fill="black"/>
<defs>
<linearGradient id="paint0_linear" x1="250" y1="0" x2="250" y2="305.639" gradientUnits="userSpaceOnUse">
<stop stop-color="#F42299"/>
<stop offset="0.53125" stop-color="#87338A"/>
<stop offset="1" stop-color="#12457A"/>
</linearGradient>
</defs>
</svg>
